<mxfile host="app.diagrams.net" agent="Mozilla/5.0 (X11; Linux x86_64) AppleWebKit/537.36 (KHTML, like Gecko) Chrome/126.0.0.0 Safari/537.36" version="24.7.5" pages="2">
  <diagram id="C5RBs43oDa-KdzZeNtuy" name="Ros2">
    <mxGraphModel dx="4843" dy="1870" grid="1" gridSize="10" guides="1" tooltips="1" connect="1" arrows="1" fold="1" page="1" pageScale="1" pageWidth="827" pageHeight="1169" math="0" shadow="0">
      <root>
        <mxCell id="WIyWlLk6GJQsqaUBKTNV-0" />
        <mxCell id="WIyWlLk6GJQsqaUBKTNV-1" parent="WIyWlLk6GJQsqaUBKTNV-0" />
        <mxCell id="4p0fjycxaOFCBDuehbkz-36" value="" style="shape=folder;fontStyle=1;spacingTop=10;tabWidth=40;tabHeight=14;tabPosition=left;html=1;whiteSpace=wrap;fillColor=none;" parent="WIyWlLk6GJQsqaUBKTNV-1" vertex="1">
          <mxGeometry x="510" y="20" width="400" height="900" as="geometry" />
        </mxCell>
        <mxCell id="4p0fjycxaOFCBDuehbkz-1" value="" style="shape=folder;fontStyle=1;spacingTop=10;tabWidth=40;tabHeight=14;tabPosition=left;html=1;whiteSpace=wrap;fillColor=none;" parent="WIyWlLk6GJQsqaUBKTNV-1" vertex="1">
          <mxGeometry x="20" y="10" width="380" height="850" as="geometry" />
        </mxCell>
        <mxCell id="zkfFHV4jXpPFQw0GAbJ--0" value="GroundStationControl" style="swimlane;fontStyle=2;align=center;verticalAlign=top;childLayout=stackLayout;horizontal=1;startSize=26;horizontalStack=0;resizeParent=1;resizeLast=0;collapsible=1;marginBottom=0;rounded=0;shadow=0;strokeWidth=1;" parent="WIyWlLk6GJQsqaUBKTNV-1" vertex="1">
          <mxGeometry x="40" y="42" width="340" height="798" as="geometry">
            <mxRectangle x="230" y="140" width="160" height="26" as="alternateBounds" />
          </mxGeometry>
        </mxCell>
        <mxCell id="4p0fjycxaOFCBDuehbkz-8" value="Attributes" style="html=1;whiteSpace=wrap;" parent="zkfFHV4jXpPFQw0GAbJ--0" vertex="1">
          <mxGeometry y="26" width="340" height="24" as="geometry" />
        </mxCell>
        <mxCell id="zkfFHV4jXpPFQw0GAbJ--1" value="Character - Type of Users (unsed)" style="text;align=left;verticalAlign=top;spacingLeft=4;spacingRight=4;overflow=hidden;rotatable=0;points=[[0,0.5],[1,0.5]];portConstraint=eastwest;" parent="zkfFHV4jXpPFQw0GAbJ--0" vertex="1">
          <mxGeometry y="50" width="340" height="26" as="geometry" />
        </mxCell>
        <mxCell id="zkfFHV4jXpPFQw0GAbJ--2" value="Character - Type of Algorithm" style="text;align=left;verticalAlign=top;spacingLeft=4;spacingRight=4;overflow=hidden;rotatable=0;points=[[0,0.5],[1,0.5]];portConstraint=eastwest;rounded=0;shadow=0;html=0;" parent="zkfFHV4jXpPFQw0GAbJ--0" vertex="1">
          <mxGeometry y="76" width="340" height="26" as="geometry" />
        </mxCell>
        <mxCell id="4p0fjycxaOFCBDuehbkz-3" value="int - seed" style="text;strokeColor=none;fillColor=none;align=left;verticalAlign=top;spacingLeft=4;spacingRight=4;overflow=hidden;rotatable=0;points=[[0,0.5],[1,0.5]];portConstraint=eastwest;whiteSpace=wrap;html=1;" parent="zkfFHV4jXpPFQw0GAbJ--0" vertex="1">
          <mxGeometry y="102" width="340" height="26" as="geometry" />
        </mxCell>
        <mxCell id="4p0fjycxaOFCBDuehbkz-4" value="int - id" style="text;strokeColor=none;fillColor=none;align=left;verticalAlign=top;spacingLeft=4;spacingRight=4;overflow=hidden;rotatable=0;points=[[0,0.5],[1,0.5]];portConstraint=eastwest;whiteSpace=wrap;html=1;" parent="zkfFHV4jXpPFQw0GAbJ--0" vertex="1">
          <mxGeometry y="128" width="340" height="26" as="geometry" />
        </mxCell>
        <mxCell id="zkfFHV4jXpPFQw0GAbJ--3" value="float - Weight" style="text;align=left;verticalAlign=top;spacingLeft=4;spacingRight=4;overflow=hidden;rotatable=0;points=[[0,0.5],[1,0.5]];portConstraint=eastwest;rounded=0;shadow=0;html=0;" parent="zkfFHV4jXpPFQw0GAbJ--0" vertex="1">
          <mxGeometry y="154" width="340" height="26" as="geometry" />
        </mxCell>
        <mxCell id="4p0fjycxaOFCBDuehbkz-23" value="key - Fernet" style="text;strokeColor=none;fillColor=none;align=left;verticalAlign=top;spacingLeft=4;spacingRight=4;overflow=hidden;rotatable=0;points=[[0,0.5],[1,0.5]];portConstraint=eastwest;whiteSpace=wrap;html=1;" parent="zkfFHV4jXpPFQw0GAbJ--0" vertex="1">
          <mxGeometry y="180" width="340" height="26" as="geometry" />
        </mxCell>
        <mxCell id="4p0fjycxaOFCBDuehbkz-24" value="int - current_id (current drone&#39;s Id)" style="text;strokeColor=none;fillColor=none;align=left;verticalAlign=top;spacingLeft=4;spacingRight=4;overflow=hidden;rotatable=0;points=[[0,0.5],[1,0.5]];portConstraint=eastwest;whiteSpace=wrap;html=1;" parent="zkfFHV4jXpPFQw0GAbJ--0" vertex="1">
          <mxGeometry y="206" width="340" height="26" as="geometry" />
        </mxCell>
        <mxCell id="4p0fjycxaOFCBDuehbkz-25" value="bool - drones_launched (if first drone has been launched)" style="text;strokeColor=none;fillColor=none;align=left;verticalAlign=top;spacingLeft=4;spacingRight=4;overflow=hidden;rotatable=0;points=[[0,0.5],[1,0.5]];portConstraint=eastwest;whiteSpace=wrap;html=1;" parent="zkfFHV4jXpPFQw0GAbJ--0" vertex="1">
          <mxGeometry y="232" width="340" height="26" as="geometry" />
        </mxCell>
        <mxCell id="4p0fjycxaOFCBDuehbkz-26" value="DateTime - timer" style="text;strokeColor=none;fillColor=none;align=left;verticalAlign=top;spacingLeft=4;spacingRight=4;overflow=hidden;rotatable=0;points=[[0,0.5],[1,0.5]];portConstraint=eastwest;whiteSpace=wrap;html=1;" parent="zkfFHV4jXpPFQw0GAbJ--0" vertex="1">
          <mxGeometry y="258" width="340" height="26" as="geometry" />
        </mxCell>
        <mxCell id="zkfFHV4jXpPFQw0GAbJ--4" value="" style="line;html=1;strokeWidth=1;align=left;verticalAlign=middle;spacingTop=-1;spacingLeft=3;spacingRight=3;rotatable=0;labelPosition=right;points=[];portConstraint=eastwest;" parent="zkfFHV4jXpPFQw0GAbJ--0" vertex="1">
          <mxGeometry y="284" width="340" height="8" as="geometry" />
        </mxCell>
        <mxCell id="4p0fjycxaOFCBDuehbkz-15" value="Services/Topics" style="html=1;whiteSpace=wrap;" parent="zkfFHV4jXpPFQw0GAbJ--0" vertex="1">
          <mxGeometry y="292" width="340" height="24" as="geometry" />
        </mxCell>
        <mxCell id="4p0fjycxaOFCBDuehbkz-16" value="Service - NewDrone - NewDrone" style="text;strokeColor=none;fillColor=none;align=left;verticalAlign=top;spacingLeft=4;spacingRight=4;overflow=hidden;rotatable=0;points=[[0,0.5],[1,0.5]];portConstraint=eastwest;whiteSpace=wrap;html=1;" parent="zkfFHV4jXpPFQw0GAbJ--0" vertex="1">
          <mxGeometry y="316" width="340" height="26" as="geometry" />
        </mxCell>
        <mxCell id="4p0fjycxaOFCBDuehbkz-17" value="Service - LaunchDrone - LaunchDrone" style="text;strokeColor=none;fillColor=none;align=left;verticalAlign=top;spacingLeft=4;spacingRight=4;overflow=hidden;rotatable=0;points=[[0,0.5],[1,0.5]];portConstraint=eastwest;whiteSpace=wrap;html=1;" parent="zkfFHV4jXpPFQw0GAbJ--0" vertex="1">
          <mxGeometry y="342" width="340" height="26" as="geometry" />
        </mxCell>
        <mxCell id="4p0fjycxaOFCBDuehbkz-18" value="Sub - DronePosition - /drone/position" style="text;strokeColor=none;fillColor=none;align=left;verticalAlign=top;spacingLeft=4;spacingRight=4;overflow=hidden;rotatable=0;points=[[0,0.5],[1,0.5]];portConstraint=eastwest;whiteSpace=wrap;html=1;" parent="zkfFHV4jXpPFQw0GAbJ--0" vertex="1">
          <mxGeometry y="368" width="340" height="26" as="geometry" />
        </mxCell>
        <mxCell id="4p0fjycxaOFCBDuehbkz-19" value="Sub - ClientsFound - /drone/clients_found" style="text;strokeColor=none;fillColor=none;align=left;verticalAlign=top;spacingLeft=4;spacingRight=4;overflow=hidden;rotatable=0;points=[[0,0.5],[1,0.5]];portConstraint=eastwest;whiteSpace=wrap;html=1;" parent="zkfFHV4jXpPFQw0GAbJ--0" vertex="1">
          <mxGeometry y="394" width="340" height="26" as="geometry" />
        </mxCell>
        <mxCell id="4p0fjycxaOFCBDuehbkz-20" value="Sub - UInt32 - /drone/stop" style="text;strokeColor=none;fillColor=none;align=left;verticalAlign=top;spacingLeft=4;spacingRight=4;overflow=hidden;rotatable=0;points=[[0,0.5],[1,0.5]];portConstraint=eastwest;whiteSpace=wrap;html=1;" parent="zkfFHV4jXpPFQw0GAbJ--0" vertex="1">
          <mxGeometry y="420" width="340" height="26" as="geometry" />
        </mxCell>
        <mxCell id="4p0fjycxaOFCBDuehbkz-21" value="Sub - UInt32 - /drone/restart" style="text;strokeColor=none;fillColor=none;align=left;verticalAlign=top;spacingLeft=4;spacingRight=4;overflow=hidden;rotatable=0;points=[[0,0.5],[1,0.5]];portConstraint=eastwest;whiteSpace=wrap;html=1;" parent="zkfFHV4jXpPFQw0GAbJ--0" vertex="1">
          <mxGeometry y="446" width="340" height="26" as="geometry" />
        </mxCell>
        <mxCell id="4p0fjycxaOFCBDuehbkz-22" value="Sub - MissionStatus - /drone/mission_status" style="text;strokeColor=none;fillColor=none;align=left;verticalAlign=top;spacingLeft=4;spacingRight=4;overflow=hidden;rotatable=0;points=[[0,0.5],[1,0.5]];portConstraint=eastwest;whiteSpace=wrap;html=1;" parent="zkfFHV4jXpPFQw0GAbJ--0" vertex="1">
          <mxGeometry y="472" width="340" height="26" as="geometry" />
        </mxCell>
        <mxCell id="4p0fjycxaOFCBDuehbkz-12" value="Methods" style="html=1;whiteSpace=wrap;" parent="zkfFHV4jXpPFQw0GAbJ--0" vertex="1">
          <mxGeometry y="498" width="340" height="24" as="geometry" />
        </mxCell>
        <mxCell id="4p0fjycxaOFCBDuehbkz-13" value="Clients Timer - Logs in a file all clients found and served" style="text;strokeColor=none;fillColor=none;align=left;verticalAlign=top;spacingLeft=4;spacingRight=4;overflow=hidden;rotatable=0;points=[[0,0.5],[1,0.5]];portConstraint=eastwest;whiteSpace=wrap;html=1;" parent="zkfFHV4jXpPFQw0GAbJ--0" vertex="1">
          <mxGeometry y="522" width="340" height="26" as="geometry" />
        </mxCell>
        <mxCell id="4p0fjycxaOFCBDuehbkz-28" value="Mission Status - If search is complete then send land positions" style="text;strokeColor=none;fillColor=none;align=left;verticalAlign=top;spacingLeft=4;spacingRight=4;overflow=hidden;rotatable=0;points=[[0,0.5],[1,0.5]];portConstraint=eastwest;whiteSpace=wrap;html=1;" parent="zkfFHV4jXpPFQw0GAbJ--0" vertex="1">
          <mxGeometry y="548" width="340" height="42" as="geometry" />
        </mxCell>
        <mxCell id="4p0fjycxaOFCBDuehbkz-29" value="Drone Position - Sends drone&#39;s position to API" style="text;strokeColor=none;fillColor=none;align=left;verticalAlign=top;spacingLeft=4;spacingRight=4;overflow=hidden;rotatable=0;points=[[0,0.5],[1,0.5]];portConstraint=eastwest;whiteSpace=wrap;html=1;" parent="zkfFHV4jXpPFQw0GAbJ--0" vertex="1">
          <mxGeometry y="590" width="340" height="26" as="geometry" />
        </mxCell>
        <mxCell id="4p0fjycxaOFCBDuehbkz-30" value="Clients Found - Sends clients found by a drone to API" style="text;strokeColor=none;fillColor=none;align=left;verticalAlign=top;spacingLeft=4;spacingRight=4;overflow=hidden;rotatable=0;points=[[0,0.5],[1,0.5]];portConstraint=eastwest;whiteSpace=wrap;html=1;" parent="zkfFHV4jXpPFQw0GAbJ--0" vertex="1">
          <mxGeometry y="616" width="340" height="26" as="geometry" />
        </mxCell>
        <mxCell id="4p0fjycxaOFCBDuehbkz-27" value="Launch Drone - Launches a drone" style="text;strokeColor=none;fillColor=none;align=left;verticalAlign=top;spacingLeft=4;spacingRight=4;overflow=hidden;rotatable=0;points=[[0,0.5],[1,0.5]];portConstraint=eastwest;whiteSpace=wrap;html=1;" parent="zkfFHV4jXpPFQw0GAbJ--0" vertex="1">
          <mxGeometry y="642" width="340" height="26" as="geometry" />
        </mxCell>
        <mxCell id="4p0fjycxaOFCBDuehbkz-31" value="New Drone - tells API there is a new drone available" style="text;strokeColor=none;fillColor=none;align=left;verticalAlign=top;spacingLeft=4;spacingRight=4;overflow=hidden;rotatable=0;points=[[0,0.5],[1,0.5]];portConstraint=eastwest;whiteSpace=wrap;html=1;" parent="zkfFHV4jXpPFQw0GAbJ--0" vertex="1">
          <mxGeometry y="668" width="340" height="26" as="geometry" />
        </mxCell>
        <mxCell id="4p0fjycxaOFCBDuehbkz-32" value="Restart Drone - Drone restarts it&#39;s mission" style="text;strokeColor=none;fillColor=none;align=left;verticalAlign=top;spacingLeft=4;spacingRight=4;overflow=hidden;rotatable=0;points=[[0,0.5],[1,0.5]];portConstraint=eastwest;whiteSpace=wrap;html=1;" parent="zkfFHV4jXpPFQw0GAbJ--0" vertex="1">
          <mxGeometry y="694" width="340" height="26" as="geometry" />
        </mxCell>
        <mxCell id="4p0fjycxaOFCBDuehbkz-33" value="Stop Drone - Drone stops it&#39;s mission" style="text;strokeColor=none;fillColor=none;align=left;verticalAlign=top;spacingLeft=4;spacingRight=4;overflow=hidden;rotatable=0;points=[[0,0.5],[1,0.5]];portConstraint=eastwest;whiteSpace=wrap;html=1;" parent="zkfFHV4jXpPFQw0GAbJ--0" vertex="1">
          <mxGeometry y="720" width="340" height="26" as="geometry" />
        </mxCell>
        <mxCell id="4p0fjycxaOFCBDuehbkz-35" value="Send Land Positions - Sends land positions to a drone" style="text;strokeColor=none;fillColor=none;align=left;verticalAlign=top;spacingLeft=4;spacingRight=4;overflow=hidden;rotatable=0;points=[[0,0.5],[1,0.5]];portConstraint=eastwest;whiteSpace=wrap;html=1;" parent="zkfFHV4jXpPFQw0GAbJ--0" vertex="1">
          <mxGeometry y="746" width="340" height="26" as="geometry" />
        </mxCell>
        <mxCell id="4p0fjycxaOFCBDuehbkz-34" value="Send Positions - Sends positions to a drone" style="text;strokeColor=none;fillColor=none;align=left;verticalAlign=top;spacingLeft=4;spacingRight=4;overflow=hidden;rotatable=0;points=[[0,0.5],[1,0.5]];portConstraint=eastwest;whiteSpace=wrap;html=1;" parent="zkfFHV4jXpPFQw0GAbJ--0" vertex="1">
          <mxGeometry y="772" width="340" height="26" as="geometry" />
        </mxCell>
        <mxCell id="4p0fjycxaOFCBDuehbkz-2" value="GSC" style="text;html=1;align=center;verticalAlign=middle;whiteSpace=wrap;rounded=0;" parent="WIyWlLk6GJQsqaUBKTNV-1" vertex="1">
          <mxGeometry x="18" y="7" width="50" height="20" as="geometry" />
        </mxCell>
        <mxCell id="4p0fjycxaOFCBDuehbkz-37" value="Clients" style="text;html=1;align=center;verticalAlign=middle;whiteSpace=wrap;rounded=0;" parent="WIyWlLk6GJQsqaUBKTNV-1" vertex="1">
          <mxGeometry x="506" y="18" width="50" height="20" as="geometry" />
        </mxCell>
        <mxCell id="4p0fjycxaOFCBDuehbkz-69" value="ChangeColorService" style="swimlane;fontStyle=2;align=center;verticalAlign=top;childLayout=stackLayout;horizontal=1;startSize=26;horizontalStack=0;resizeParent=1;resizeLast=0;collapsible=1;marginBottom=0;rounded=0;shadow=0;strokeWidth=1;" parent="WIyWlLk6GJQsqaUBKTNV-1" vertex="1">
          <mxGeometry x="530" y="50" width="340" height="160" as="geometry">
            <mxRectangle x="230" y="140" width="160" height="26" as="alternateBounds" />
          </mxGeometry>
        </mxCell>
        <mxCell id="4p0fjycxaOFCBDuehbkz-70" value="Attributes" style="html=1;whiteSpace=wrap;" parent="4p0fjycxaOFCBDuehbkz-69" vertex="1">
          <mxGeometry y="26" width="340" height="24" as="geometry" />
        </mxCell>
        <mxCell id="4p0fjycxaOFCBDuehbkz-80" value="" style="line;html=1;strokeWidth=1;align=left;verticalAlign=middle;spacingTop=-1;spacingLeft=3;spacingRight=3;rotatable=0;labelPosition=right;points=[];portConstraint=eastwest;" parent="4p0fjycxaOFCBDuehbkz-69" vertex="1">
          <mxGeometry y="50" width="340" height="8" as="geometry" />
        </mxCell>
        <mxCell id="4p0fjycxaOFCBDuehbkz-81" value="Services/Topics" style="html=1;whiteSpace=wrap;" parent="4p0fjycxaOFCBDuehbkz-69" vertex="1">
          <mxGeometry y="58" width="340" height="24" as="geometry" />
        </mxCell>
        <mxCell id="4p0fjycxaOFCBDuehbkz-82" value="Service - ChangeColor - change_color" style="text;strokeColor=none;fillColor=none;align=left;verticalAlign=top;spacingLeft=4;spacingRight=4;overflow=hidden;rotatable=0;points=[[0,0.5],[1,0.5]];portConstraint=eastwest;whiteSpace=wrap;html=1;" parent="4p0fjycxaOFCBDuehbkz-69" vertex="1">
          <mxGeometry y="82" width="340" height="26" as="geometry" />
        </mxCell>
        <mxCell id="4p0fjycxaOFCBDuehbkz-89" value="Methods" style="html=1;whiteSpace=wrap;" parent="4p0fjycxaOFCBDuehbkz-69" vertex="1">
          <mxGeometry y="108" width="340" height="24" as="geometry" />
        </mxCell>
        <mxCell id="4p0fjycxaOFCBDuehbkz-90" value="Change Color - Changes color for a model" style="text;strokeColor=none;fillColor=none;align=left;verticalAlign=top;spacingLeft=4;spacingRight=4;overflow=hidden;rotatable=0;points=[[0,0.5],[1,0.5]];portConstraint=eastwest;whiteSpace=wrap;html=1;" parent="4p0fjycxaOFCBDuehbkz-69" vertex="1">
          <mxGeometry y="132" width="340" height="26" as="geometry" />
        </mxCell>
        <mxCell id="4p0fjycxaOFCBDuehbkz-100" value="Client" style="swimlane;fontStyle=2;align=center;verticalAlign=top;childLayout=stackLayout;horizontal=1;startSize=26;horizontalStack=0;resizeParent=1;resizeLast=0;collapsible=1;marginBottom=0;rounded=0;shadow=0;strokeWidth=1;" parent="WIyWlLk6GJQsqaUBKTNV-1" vertex="1">
          <mxGeometry x="530" y="240" width="340" height="432" as="geometry">
            <mxRectangle x="230" y="140" width="160" height="26" as="alternateBounds" />
          </mxGeometry>
        </mxCell>
        <mxCell id="4p0fjycxaOFCBDuehbkz-101" value="Attributes" style="html=1;whiteSpace=wrap;" parent="4p0fjycxaOFCBDuehbkz-100" vertex="1">
          <mxGeometry y="26" width="340" height="24" as="geometry" />
        </mxCell>
        <mxCell id="4p0fjycxaOFCBDuehbkz-102" value="" style="line;html=1;strokeWidth=1;align=left;verticalAlign=middle;spacingTop=-1;spacingLeft=3;spacingRight=3;rotatable=0;labelPosition=right;points=[];portConstraint=eastwest;" parent="4p0fjycxaOFCBDuehbkz-100" vertex="1">
          <mxGeometry y="50" width="340" height="8" as="geometry" />
        </mxCell>
        <mxCell id="4p0fjycxaOFCBDuehbkz-107" value="int - id" style="text;strokeColor=none;fillColor=none;align=left;verticalAlign=top;spacingLeft=4;spacingRight=4;overflow=hidden;rotatable=0;points=[[0,0.5],[1,0.5]];portConstraint=eastwest;whiteSpace=wrap;html=1;" parent="4p0fjycxaOFCBDuehbkz-100" vertex="1">
          <mxGeometry y="58" width="340" height="26" as="geometry" />
        </mxCell>
        <mxCell id="4p0fjycxaOFCBDuehbkz-109" value="Vector3 - color" style="text;strokeColor=none;fillColor=none;align=left;verticalAlign=top;spacingLeft=4;spacingRight=4;overflow=hidden;rotatable=0;points=[[0,0.5],[1,0.5]];portConstraint=eastwest;whiteSpace=wrap;html=1;" parent="4p0fjycxaOFCBDuehbkz-100" vertex="1">
          <mxGeometry y="84" width="340" height="26" as="geometry" />
        </mxCell>
        <mxCell id="4p0fjycxaOFCBDuehbkz-110" value="bool - served" style="text;strokeColor=none;fillColor=none;align=left;verticalAlign=top;spacingLeft=4;spacingRight=4;overflow=hidden;rotatable=0;points=[[0,0.5],[1,0.5]];portConstraint=eastwest;whiteSpace=wrap;html=1;" parent="4p0fjycxaOFCBDuehbkz-100" vertex="1">
          <mxGeometry y="110" width="340" height="26" as="geometry" />
        </mxCell>
        <mxCell id="4p0fjycxaOFCBDuehbkz-112" value="DateTime - current_time" style="text;strokeColor=none;fillColor=none;align=left;verticalAlign=top;spacingLeft=4;spacingRight=4;overflow=hidden;rotatable=0;points=[[0,0.5],[1,0.5]];portConstraint=eastwest;whiteSpace=wrap;html=1;" parent="4p0fjycxaOFCBDuehbkz-100" vertex="1">
          <mxGeometry y="136" width="340" height="26" as="geometry" />
        </mxCell>
        <mxCell id="4p0fjycxaOFCBDuehbkz-111" value="bool - found" style="text;strokeColor=none;fillColor=none;align=left;verticalAlign=top;spacingLeft=4;spacingRight=4;overflow=hidden;rotatable=0;points=[[0,0.5],[1,0.5]];portConstraint=eastwest;whiteSpace=wrap;html=1;" parent="4p0fjycxaOFCBDuehbkz-100" vertex="1">
          <mxGeometry y="162" width="340" height="26" as="geometry" />
        </mxCell>
        <mxCell id="4p0fjycxaOFCBDuehbkz-108" value="Vector3 - position" style="text;strokeColor=none;fillColor=none;align=left;verticalAlign=top;spacingLeft=4;spacingRight=4;overflow=hidden;rotatable=0;points=[[0,0.5],[1,0.5]];portConstraint=eastwest;whiteSpace=wrap;html=1;" parent="4p0fjycxaOFCBDuehbkz-100" vertex="1">
          <mxGeometry y="188" width="340" height="26" as="geometry" />
        </mxCell>
        <mxCell id="4p0fjycxaOFCBDuehbkz-103" value="Services/Topics" style="html=1;whiteSpace=wrap;" parent="4p0fjycxaOFCBDuehbkz-100" vertex="1">
          <mxGeometry y="214" width="340" height="24" as="geometry" />
        </mxCell>
        <mxCell id="4p0fjycxaOFCBDuehbkz-104" value="Service - Served - client_served" style="text;strokeColor=none;fillColor=none;align=left;verticalAlign=top;spacingLeft=4;spacingRight=4;overflow=hidden;rotatable=0;points=[[0,0.5],[1,0.5]];portConstraint=eastwest;whiteSpace=wrap;html=1;" parent="4p0fjycxaOFCBDuehbkz-100" vertex="1">
          <mxGeometry y="238" width="340" height="26" as="geometry" />
        </mxCell>
        <mxCell id="4p0fjycxaOFCBDuehbkz-113" value="Sub - DroneStatus - /drone/search/status" style="text;strokeColor=none;fillColor=none;align=left;verticalAlign=top;spacingLeft=4;spacingRight=4;overflow=hidden;rotatable=0;points=[[0,0.5],[1,0.5]];portConstraint=eastwest;whiteSpace=wrap;html=1;" parent="4p0fjycxaOFCBDuehbkz-100" vertex="1">
          <mxGeometry y="264" width="340" height="26" as="geometry" />
        </mxCell>
        <mxCell id="4p0fjycxaOFCBDuehbkz-116" value="Pub - ClientInformation - /clients" style="text;strokeColor=none;fillColor=none;align=left;verticalAlign=top;spacingLeft=4;spacingRight=4;overflow=hidden;rotatable=0;points=[[0,0.5],[1,0.5]];portConstraint=eastwest;whiteSpace=wrap;html=1;" parent="4p0fjycxaOFCBDuehbkz-100" vertex="1">
          <mxGeometry y="290" width="340" height="26" as="geometry" />
        </mxCell>
        <mxCell id="4p0fjycxaOFCBDuehbkz-105" value="Methods" style="html=1;whiteSpace=wrap;" parent="4p0fjycxaOFCBDuehbkz-100" vertex="1">
          <mxGeometry y="316" width="340" height="24" as="geometry" />
        </mxCell>
        <mxCell id="4p0fjycxaOFCBDuehbkz-106" value="Client Served - Drone tell him that he is being served" style="text;strokeColor=none;fillColor=none;align=left;verticalAlign=top;spacingLeft=4;spacingRight=4;overflow=hidden;rotatable=0;points=[[0,0.5],[1,0.5]];portConstraint=eastwest;whiteSpace=wrap;html=1;" parent="4p0fjycxaOFCBDuehbkz-100" vertex="1">
          <mxGeometry y="340" width="340" height="26" as="geometry" />
        </mxCell>
        <mxCell id="4p0fjycxaOFCBDuehbkz-114" value="Being Served - Once told he is being served, check if any drones are still in range to serve him" style="text;strokeColor=none;fillColor=none;align=left;verticalAlign=top;spacingLeft=4;spacingRight=4;overflow=hidden;rotatable=0;points=[[0,0.5],[1,0.5]];portConstraint=eastwest;whiteSpace=wrap;html=1;" parent="4p0fjycxaOFCBDuehbkz-100" vertex="1">
          <mxGeometry y="366" width="340" height="40" as="geometry" />
        </mxCell>
        <mxCell id="4p0fjycxaOFCBDuehbkz-115" value="Check In Range - Check&#39;s if any drone is in range" style="text;strokeColor=none;fillColor=none;align=left;verticalAlign=top;spacingLeft=4;spacingRight=4;overflow=hidden;rotatable=0;points=[[0,0.5],[1,0.5]];portConstraint=eastwest;whiteSpace=wrap;html=1;" parent="4p0fjycxaOFCBDuehbkz-100" vertex="1">
          <mxGeometry y="406" width="340" height="26" as="geometry" />
        </mxCell>
        <mxCell id="4p0fjycxaOFCBDuehbkz-117" value="ClientsLaunch" style="swimlane;fontStyle=2;align=center;verticalAlign=top;childLayout=stackLayout;horizontal=1;startSize=26;horizontalStack=0;resizeParent=1;resizeLast=0;collapsible=1;marginBottom=0;rounded=0;shadow=0;strokeWidth=1;" parent="WIyWlLk6GJQsqaUBKTNV-1" vertex="1">
          <mxGeometry x="530" y="700" width="340" height="160" as="geometry">
            <mxRectangle x="230" y="140" width="160" height="26" as="alternateBounds" />
          </mxGeometry>
        </mxCell>
        <mxCell id="4p0fjycxaOFCBDuehbkz-118" value="Attributes" style="html=1;whiteSpace=wrap;" parent="4p0fjycxaOFCBDuehbkz-117" vertex="1">
          <mxGeometry y="26" width="340" height="24" as="geometry" />
        </mxCell>
        <mxCell id="4p0fjycxaOFCBDuehbkz-119" value="" style="line;html=1;strokeWidth=1;align=left;verticalAlign=middle;spacingTop=-1;spacingLeft=3;spacingRight=3;rotatable=0;labelPosition=right;points=[];portConstraint=eastwest;" parent="4p0fjycxaOFCBDuehbkz-117" vertex="1">
          <mxGeometry y="50" width="340" height="8" as="geometry" />
        </mxCell>
        <mxCell id="4p0fjycxaOFCBDuehbkz-120" value="Services/Topics" style="html=1;whiteSpace=wrap;" parent="4p0fjycxaOFCBDuehbkz-117" vertex="1">
          <mxGeometry y="58" width="340" height="24" as="geometry" />
        </mxCell>
        <mxCell id="4p0fjycxaOFCBDuehbkz-122" value="Methods" style="html=1;whiteSpace=wrap;" parent="4p0fjycxaOFCBDuehbkz-117" vertex="1">
          <mxGeometry y="82" width="340" height="24" as="geometry" />
        </mxCell>
        <mxCell id="4p0fjycxaOFCBDuehbkz-123" value="Generate Launch Description - Generates Clients Base on API or env file depending on user preference" style="text;strokeColor=none;fillColor=none;align=left;verticalAlign=top;spacingLeft=4;spacingRight=4;overflow=hidden;rotatable=0;points=[[0,0.5],[1,0.5]];portConstraint=eastwest;whiteSpace=wrap;html=1;" parent="4p0fjycxaOFCBDuehbkz-117" vertex="1">
          <mxGeometry y="106" width="340" height="54" as="geometry" />
        </mxCell>
        <mxCell id="RlJB3CUcUBt8CbnHZNZM-0" value="" style="shape=folder;fontStyle=1;spacingTop=10;tabWidth=40;tabHeight=14;tabPosition=left;html=1;whiteSpace=wrap;fillColor=none;" parent="WIyWlLk6GJQsqaUBKTNV-1" vertex="1">
          <mxGeometry x="994" y="20" width="400" height="2270" as="geometry" />
        </mxCell>
        <mxCell id="RlJB3CUcUBt8CbnHZNZM-1" value="Drone" style="text;html=1;align=center;verticalAlign=middle;whiteSpace=wrap;rounded=0;" parent="WIyWlLk6GJQsqaUBKTNV-1" vertex="1">
          <mxGeometry x="990" y="18" width="50" height="20" as="geometry" />
        </mxCell>
        <mxCell id="RlJB3CUcUBt8CbnHZNZM-2" value="LaunchDroneService" style="swimlane;fontStyle=2;align=center;verticalAlign=top;childLayout=stackLayout;horizontal=1;startSize=26;horizontalStack=0;resizeParent=1;resizeLast=0;collapsible=1;marginBottom=0;rounded=0;shadow=0;strokeWidth=1;html=1;" parent="WIyWlLk6GJQsqaUBKTNV-1" vertex="1">
          <mxGeometry x="1014" y="50" width="340" height="140" as="geometry">
            <mxRectangle x="230" y="140" width="160" height="26" as="alternateBounds" />
          </mxGeometry>
        </mxCell>
        <mxCell id="RlJB3CUcUBt8CbnHZNZM-3" value="Attributes" style="html=1;whiteSpace=wrap;" parent="RlJB3CUcUBt8CbnHZNZM-2" vertex="1">
          <mxGeometry y="26" width="340" height="24" as="geometry" />
        </mxCell>
        <mxCell id="RlJB3CUcUBt8CbnHZNZM-32" value="int - id" style="text;strokeColor=none;fillColor=none;align=left;verticalAlign=top;spacingLeft=4;spacingRight=4;overflow=hidden;rotatable=0;points=[[0,0.5],[1,0.5]];portConstraint=eastwest;whiteSpace=wrap;html=1;" parent="RlJB3CUcUBt8CbnHZNZM-2" vertex="1">
          <mxGeometry y="50" width="340" height="26" as="geometry" />
        </mxCell>
        <mxCell id="RlJB3CUcUBt8CbnHZNZM-4" value="" style="line;html=1;strokeWidth=1;align=left;verticalAlign=middle;spacingTop=-1;spacingLeft=3;spacingRight=3;rotatable=0;labelPosition=right;points=[];portConstraint=eastwest;" parent="RlJB3CUcUBt8CbnHZNZM-2" vertex="1">
          <mxGeometry y="76" width="340" height="8" as="geometry" />
        </mxCell>
        <mxCell id="RlJB3CUcUBt8CbnHZNZM-5" value="Services/Topics" style="html=1;whiteSpace=wrap;" parent="RlJB3CUcUBt8CbnHZNZM-2" vertex="1">
          <mxGeometry y="84" width="340" height="24" as="geometry" />
        </mxCell>
        <mxCell id="RlJB3CUcUBt8CbnHZNZM-7" value="Methods" style="html=1;whiteSpace=wrap;" parent="RlJB3CUcUBt8CbnHZNZM-2" vertex="1">
          <mxGeometry y="108" width="340" height="24" as="geometry" />
        </mxCell>
        <mxCell id="RlJB3CUcUBt8CbnHZNZM-9" value="SpawnModelService" style="swimlane;fontStyle=2;align=center;verticalAlign=top;childLayout=stackLayout;horizontal=1;startSize=26;horizontalStack=0;resizeParent=1;resizeLast=0;collapsible=1;marginBottom=0;rounded=0;shadow=0;strokeWidth=1;" parent="WIyWlLk6GJQsqaUBKTNV-1" vertex="1">
          <mxGeometry x="1014" y="200" width="340" height="250" as="geometry">
            <mxRectangle x="230" y="140" width="160" height="26" as="alternateBounds" />
          </mxGeometry>
        </mxCell>
        <mxCell id="RlJB3CUcUBt8CbnHZNZM-10" value="Attributes" style="html=1;whiteSpace=wrap;" parent="RlJB3CUcUBt8CbnHZNZM-9" vertex="1">
          <mxGeometry y="26" width="340" height="24" as="geometry" />
        </mxCell>
        <mxCell id="RlJB3CUcUBt8CbnHZNZM-11" value="" style="line;html=1;strokeWidth=1;align=left;verticalAlign=middle;spacingTop=-1;spacingLeft=3;spacingRight=3;rotatable=0;labelPosition=right;points=[];portConstraint=eastwest;" parent="RlJB3CUcUBt8CbnHZNZM-9" vertex="1">
          <mxGeometry y="50" width="340" height="8" as="geometry" />
        </mxCell>
        <mxCell id="RlJB3CUcUBt8CbnHZNZM-12" value="array - models" style="text;strokeColor=none;fillColor=none;align=left;verticalAlign=top;spacingLeft=4;spacingRight=4;overflow=hidden;rotatable=0;points=[[0,0.5],[1,0.5]];portConstraint=eastwest;whiteSpace=wrap;html=1;" parent="RlJB3CUcUBt8CbnHZNZM-9" vertex="1">
          <mxGeometry y="58" width="340" height="26" as="geometry" />
        </mxCell>
        <mxCell id="RlJB3CUcUBt8CbnHZNZM-18" value="Services/Topics" style="html=1;whiteSpace=wrap;" parent="RlJB3CUcUBt8CbnHZNZM-9" vertex="1">
          <mxGeometry y="84" width="340" height="24" as="geometry" />
        </mxCell>
        <mxCell id="RlJB3CUcUBt8CbnHZNZM-19" value="Service - SpawnModel - /world/SpawnModel" style="text;strokeColor=none;fillColor=none;align=left;verticalAlign=top;spacingLeft=4;spacingRight=4;overflow=hidden;rotatable=0;points=[[0,0.5],[1,0.5]];portConstraint=eastwest;whiteSpace=wrap;html=1;" parent="RlJB3CUcUBt8CbnHZNZM-9" vertex="1">
          <mxGeometry y="108" width="340" height="26" as="geometry" />
        </mxCell>
        <mxCell id="RlJB3CUcUBt8CbnHZNZM-22" value="Methods" style="html=1;whiteSpace=wrap;" parent="RlJB3CUcUBt8CbnHZNZM-9" vertex="1">
          <mxGeometry y="134" width="340" height="24" as="geometry" />
        </mxCell>
        <mxCell id="RlJB3CUcUBt8CbnHZNZM-25" value="Spawn Model - Spawns the model (given name) in a position if that position doesn&#39;t contain another model" style="text;strokeColor=none;fillColor=none;align=left;verticalAlign=top;spacingLeft=4;spacingRight=4;overflow=hidden;rotatable=0;points=[[0,0.5],[1,0.5]];portConstraint=eastwest;whiteSpace=wrap;html=1;" parent="RlJB3CUcUBt8CbnHZNZM-9" vertex="1">
          <mxGeometry y="158" width="340" height="42" as="geometry" />
        </mxCell>
        <mxCell id="RlJB3CUcUBt8CbnHZNZM-33" value="Spawn Person - Spawns a person in a position, different from Spawn Model because we need to add a light" style="text;strokeColor=none;fillColor=none;align=left;verticalAlign=top;spacingLeft=4;spacingRight=4;overflow=hidden;rotatable=0;points=[[0,0.5],[1,0.5]];portConstraint=eastwest;whiteSpace=wrap;html=1;" parent="RlJB3CUcUBt8CbnHZNZM-9" vertex="1">
          <mxGeometry y="200" width="340" height="50" as="geometry" />
        </mxCell>
        <mxCell id="RlJB3CUcUBt8CbnHZNZM-26" value="GoToTargetService" style="swimlane;fontStyle=2;align=center;verticalAlign=top;childLayout=stackLayout;horizontal=1;startSize=26;horizontalStack=0;resizeParent=1;resizeLast=0;collapsible=1;marginBottom=0;rounded=0;shadow=0;strokeWidth=1;" parent="WIyWlLk6GJQsqaUBKTNV-1" vertex="1">
          <mxGeometry x="1014" y="460" width="340" height="770" as="geometry">
            <mxRectangle x="230" y="140" width="160" height="26" as="alternateBounds" />
          </mxGeometry>
        </mxCell>
        <mxCell id="RlJB3CUcUBt8CbnHZNZM-27" value="Attributes" style="html=1;whiteSpace=wrap;" parent="RlJB3CUcUBt8CbnHZNZM-26" vertex="1">
          <mxGeometry y="26" width="340" height="24" as="geometry" />
        </mxCell>
        <mxCell id="RlJB3CUcUBt8CbnHZNZM-28" value="" style="line;html=1;strokeWidth=1;align=left;verticalAlign=middle;spacingTop=-1;spacingLeft=3;spacingRight=3;rotatable=0;labelPosition=right;points=[];portConstraint=eastwest;" parent="RlJB3CUcUBt8CbnHZNZM-26" vertex="1">
          <mxGeometry y="50" width="340" height="8" as="geometry" />
        </mxCell>
        <mxCell id="RlJB3CUcUBt8CbnHZNZM-34" value="int - id" style="text;strokeColor=none;fillColor=none;align=left;verticalAlign=top;spacingLeft=4;spacingRight=4;overflow=hidden;rotatable=0;points=[[0,0.5],[1,0.5]];portConstraint=eastwest;whiteSpace=wrap;html=1;" parent="RlJB3CUcUBt8CbnHZNZM-26" vertex="1">
          <mxGeometry y="58" width="340" height="26" as="geometry" />
        </mxCell>
        <mxCell id="RlJB3CUcUBt8CbnHZNZM-35" value="int - drone_range" style="text;strokeColor=none;fillColor=none;align=left;verticalAlign=top;spacingLeft=4;spacingRight=4;overflow=hidden;rotatable=0;points=[[0,0.5],[1,0.5]];portConstraint=eastwest;whiteSpace=wrap;html=1;" parent="RlJB3CUcUBt8CbnHZNZM-26" vertex="1">
          <mxGeometry y="84" width="340" height="26" as="geometry" />
        </mxCell>
        <mxCell id="RlJB3CUcUBt8CbnHZNZM-37" value="array - targets" style="text;strokeColor=none;fillColor=none;align=left;verticalAlign=top;spacingLeft=4;spacingRight=4;overflow=hidden;rotatable=0;points=[[0,0.5],[1,0.5]];portConstraint=eastwest;whiteSpace=wrap;html=1;" parent="RlJB3CUcUBt8CbnHZNZM-26" vertex="1">
          <mxGeometry y="110" width="340" height="26" as="geometry" />
        </mxCell>
        <mxCell id="RlJB3CUcUBt8CbnHZNZM-39" value="double - distance3D" style="text;strokeColor=none;fillColor=none;align=left;verticalAlign=top;spacingLeft=4;spacingRight=4;overflow=hidden;rotatable=0;points=[[0,0.5],[1,0.5]];portConstraint=eastwest;whiteSpace=wrap;html=1;" parent="RlJB3CUcUBt8CbnHZNZM-26" vertex="1">
          <mxGeometry y="136" width="340" height="26" as="geometry" />
        </mxCell>
        <mxCell id="RlJB3CUcUBt8CbnHZNZM-41" value="Point - drone_position" style="text;strokeColor=none;fillColor=none;align=left;verticalAlign=top;spacingLeft=4;spacingRight=4;overflow=hidden;rotatable=0;points=[[0,0.5],[1,0.5]];portConstraint=eastwest;whiteSpace=wrap;html=1;" parent="RlJB3CUcUBt8CbnHZNZM-26" vertex="1">
          <mxGeometry y="162" width="340" height="26" as="geometry" />
        </mxCell>
        <mxCell id="RlJB3CUcUBt8CbnHZNZM-42" value="int - mission" style="text;strokeColor=none;fillColor=none;align=left;verticalAlign=top;spacingLeft=4;spacingRight=4;overflow=hidden;rotatable=0;points=[[0,0.5],[1,0.5]];portConstraint=eastwest;whiteSpace=wrap;html=1;" parent="RlJB3CUcUBt8CbnHZNZM-26" vertex="1">
          <mxGeometry y="188" width="340" height="26" as="geometry" />
        </mxCell>
        <mxCell id="RlJB3CUcUBt8CbnHZNZM-44" value="key - fernet" style="text;strokeColor=none;fillColor=none;align=left;verticalAlign=top;spacingLeft=4;spacingRight=4;overflow=hidden;rotatable=0;points=[[0,0.5],[1,0.5]];portConstraint=eastwest;whiteSpace=wrap;html=1;" parent="RlJB3CUcUBt8CbnHZNZM-26" vertex="1">
          <mxGeometry y="214" width="340" height="26" as="geometry" />
        </mxCell>
        <mxCell id="RlJB3CUcUBt8CbnHZNZM-46" value="array - searched" style="text;strokeColor=none;fillColor=none;align=left;verticalAlign=top;spacingLeft=4;spacingRight=4;overflow=hidden;rotatable=0;points=[[0,0.5],[1,0.5]];portConstraint=eastwest;whiteSpace=wrap;html=1;" parent="RlJB3CUcUBt8CbnHZNZM-26" vertex="1">
          <mxGeometry y="240" width="340" height="26" as="geometry" />
        </mxCell>
        <mxCell id="RlJB3CUcUBt8CbnHZNZM-45" value="int - status" style="text;strokeColor=none;fillColor=none;align=left;verticalAlign=top;spacingLeft=4;spacingRight=4;overflow=hidden;rotatable=0;points=[[0,0.5],[1,0.5]];portConstraint=eastwest;whiteSpace=wrap;html=1;" parent="RlJB3CUcUBt8CbnHZNZM-26" vertex="1">
          <mxGeometry y="266" width="340" height="26" as="geometry" />
        </mxCell>
        <mxCell id="RlJB3CUcUBt8CbnHZNZM-43" value="int - size" style="text;strokeColor=none;fillColor=none;align=left;verticalAlign=top;spacingLeft=4;spacingRight=4;overflow=hidden;rotatable=0;points=[[0,0.5],[1,0.5]];portConstraint=eastwest;whiteSpace=wrap;html=1;" parent="RlJB3CUcUBt8CbnHZNZM-26" vertex="1">
          <mxGeometry y="292" width="340" height="26" as="geometry" />
        </mxCell>
        <mxCell id="RlJB3CUcUBt8CbnHZNZM-40" value="bool - arrived" style="text;strokeColor=none;fillColor=none;align=left;verticalAlign=top;spacingLeft=4;spacingRight=4;overflow=hidden;rotatable=0;points=[[0,0.5],[1,0.5]];portConstraint=eastwest;whiteSpace=wrap;html=1;" parent="RlJB3CUcUBt8CbnHZNZM-26" vertex="1">
          <mxGeometry y="318" width="340" height="26" as="geometry" />
        </mxCell>
        <mxCell id="RlJB3CUcUBt8CbnHZNZM-38" value="int - timer" style="text;strokeColor=none;fillColor=none;align=left;verticalAlign=top;spacingLeft=4;spacingRight=4;overflow=hidden;rotatable=0;points=[[0,0.5],[1,0.5]];portConstraint=eastwest;whiteSpace=wrap;html=1;" parent="RlJB3CUcUBt8CbnHZNZM-26" vertex="1">
          <mxGeometry y="344" width="340" height="26" as="geometry" />
        </mxCell>
        <mxCell id="RlJB3CUcUBt8CbnHZNZM-36" value="Odometry - current_position" style="text;strokeColor=none;fillColor=none;align=left;verticalAlign=top;spacingLeft=4;spacingRight=4;overflow=hidden;rotatable=0;points=[[0,0.5],[1,0.5]];portConstraint=eastwest;whiteSpace=wrap;html=1;" parent="RlJB3CUcUBt8CbnHZNZM-26" vertex="1">
          <mxGeometry y="370" width="340" height="26" as="geometry" />
        </mxCell>
        <mxCell id="RlJB3CUcUBt8CbnHZNZM-29" value="Services/Topics" style="html=1;whiteSpace=wrap;" parent="RlJB3CUcUBt8CbnHZNZM-26" vertex="1">
          <mxGeometry y="396" width="340" height="24" as="geometry" />
        </mxCell>
        <mxCell id="RlJB3CUcUBt8CbnHZNZM-47" value="Service - SearchPositions - GoToTarget{self.id}" style="text;strokeColor=none;fillColor=none;align=left;verticalAlign=top;spacingLeft=4;spacingRight=4;overflow=hidden;rotatable=0;points=[[0,0.5],[1,0.5]];portConstraint=eastwest;whiteSpace=wrap;html=1;" parent="RlJB3CUcUBt8CbnHZNZM-26" vertex="1">
          <mxGeometry y="420" width="340" height="26" as="geometry" />
        </mxCell>
        <mxCell id="RlJB3CUcUBt8CbnHZNZM-48" value="Pub - DroneStatus - /drone/search/status" style="text;strokeColor=none;fillColor=none;align=left;verticalAlign=top;spacingLeft=4;spacingRight=4;overflow=hidden;rotatable=0;points=[[0,0.5],[1,0.5]];portConstraint=eastwest;whiteSpace=wrap;html=1;" parent="RlJB3CUcUBt8CbnHZNZM-26" vertex="1">
          <mxGeometry y="446" width="340" height="26" as="geometry" />
        </mxCell>
        <mxCell id="RlJB3CUcUBt8CbnHZNZM-51" value="Sub - Odometry - /model/X4_GPS_RGBD_{self.id}/odometry" style="text;strokeColor=none;fillColor=none;align=left;verticalAlign=top;spacingLeft=4;spacingRight=4;overflow=hidden;rotatable=0;points=[[0,0.5],[1,0.5]];portConstraint=eastwest;whiteSpace=wrap;html=1;" parent="RlJB3CUcUBt8CbnHZNZM-26" vertex="1">
          <mxGeometry y="472" width="340" height="26" as="geometry" />
        </mxCell>
        <mxCell id="RlJB3CUcUBt8CbnHZNZM-50" value="Pub - Twist - /X4_{self.id}/cmd_vel" style="text;strokeColor=none;fillColor=none;align=left;verticalAlign=top;spacingLeft=4;spacingRight=4;overflow=hidden;rotatable=0;points=[[0,0.5],[1,0.5]];portConstraint=eastwest;whiteSpace=wrap;html=1;" parent="RlJB3CUcUBt8CbnHZNZM-26" vertex="1">
          <mxGeometry y="498" width="340" height="26" as="geometry" />
        </mxCell>
        <mxCell id="RlJB3CUcUBt8CbnHZNZM-49" value="Service - StopAndStartSearchPositions - StopAndStartSearchPositions{self.id}" style="text;strokeColor=none;fillColor=none;align=left;verticalAlign=top;spacingLeft=4;spacingRight=4;overflow=hidden;rotatable=0;points=[[0,0.5],[1,0.5]];portConstraint=eastwest;whiteSpace=wrap;html=1;" parent="RlJB3CUcUBt8CbnHZNZM-26" vertex="1">
          <mxGeometry y="524" width="340" height="48" as="geometry" />
        </mxCell>
        <mxCell id="RlJB3CUcUBt8CbnHZNZM-30" value="Methods" style="html=1;whiteSpace=wrap;" parent="RlJB3CUcUBt8CbnHZNZM-26" vertex="1">
          <mxGeometry y="572" width="340" height="24" as="geometry" />
        </mxCell>
        <mxCell id="RlJB3CUcUBt8CbnHZNZM-31" value="Send Status - sends drone&#39;s status" style="text;strokeColor=none;fillColor=none;align=left;verticalAlign=top;spacingLeft=4;spacingRight=4;overflow=hidden;rotatable=0;points=[[0,0.5],[1,0.5]];portConstraint=eastwest;whiteSpace=wrap;html=1;" parent="RlJB3CUcUBt8CbnHZNZM-26" vertex="1">
          <mxGeometry y="596" width="340" height="24" as="geometry" />
        </mxCell>
        <mxCell id="RlJB3CUcUBt8CbnHZNZM-52" value="Stop Search - stops search" style="text;strokeColor=none;fillColor=none;align=left;verticalAlign=top;spacingLeft=4;spacingRight=4;overflow=hidden;rotatable=0;points=[[0,0.5],[1,0.5]];portConstraint=eastwest;whiteSpace=wrap;html=1;" parent="RlJB3CUcUBt8CbnHZNZM-26" vertex="1">
          <mxGeometry y="620" width="340" height="26" as="geometry" />
        </mxCell>
        <mxCell id="RlJB3CUcUBt8CbnHZNZM-53" value="Positions Callback - callback to move to positions" style="text;strokeColor=none;fillColor=none;align=left;verticalAlign=top;spacingLeft=4;spacingRight=4;overflow=hidden;rotatable=0;points=[[0,0.5],[1,0.5]];portConstraint=eastwest;whiteSpace=wrap;html=1;" parent="RlJB3CUcUBt8CbnHZNZM-26" vertex="1">
          <mxGeometry y="646" width="340" height="26" as="geometry" />
        </mxCell>
        <mxCell id="RlJB3CUcUBt8CbnHZNZM-54" value="Move To Target - moves to target" style="text;strokeColor=none;fillColor=none;align=left;verticalAlign=top;spacingLeft=4;spacingRight=4;overflow=hidden;rotatable=0;points=[[0,0.5],[1,0.5]];portConstraint=eastwest;whiteSpace=wrap;html=1;" parent="RlJB3CUcUBt8CbnHZNZM-26" vertex="1">
          <mxGeometry y="672" width="340" height="26" as="geometry" />
        </mxCell>
        <mxCell id="RlJB3CUcUBt8CbnHZNZM-55" value="Get Targets - Receives target to move to" style="text;strokeColor=none;fillColor=none;align=left;verticalAlign=top;spacingLeft=4;spacingRight=4;overflow=hidden;rotatable=0;points=[[0,0.5],[1,0.5]];portConstraint=eastwest;whiteSpace=wrap;html=1;" parent="RlJB3CUcUBt8CbnHZNZM-26" vertex="1">
          <mxGeometry y="698" width="340" height="26" as="geometry" />
        </mxCell>
        <mxCell id="RlJB3CUcUBt8CbnHZNZM-56" value="Verify Targets - Verifies integrity of the message received to make sure the positions weren&#39;t changed" style="text;strokeColor=none;fillColor=none;align=left;verticalAlign=top;spacingLeft=4;spacingRight=4;overflow=hidden;rotatable=0;points=[[0,0.5],[1,0.5]];portConstraint=eastwest;whiteSpace=wrap;html=1;" parent="RlJB3CUcUBt8CbnHZNZM-26" vertex="1">
          <mxGeometry y="724" width="340" height="46" as="geometry" />
        </mxCell>
        <mxCell id="RlJB3CUcUBt8CbnHZNZM-57" value="Drone" style="swimlane;fontStyle=2;align=center;verticalAlign=top;childLayout=stackLayout;horizontal=1;startSize=26;horizontalStack=0;resizeParent=1;resizeLast=0;collapsible=1;marginBottom=0;rounded=0;shadow=0;strokeWidth=1;" parent="WIyWlLk6GJQsqaUBKTNV-1" vertex="1">
          <mxGeometry x="1014" y="1250" width="340" height="512" as="geometry">
            <mxRectangle x="230" y="140" width="160" height="26" as="alternateBounds" />
          </mxGeometry>
        </mxCell>
        <mxCell id="RlJB3CUcUBt8CbnHZNZM-58" value="Attributes" style="html=1;whiteSpace=wrap;" parent="RlJB3CUcUBt8CbnHZNZM-57" vertex="1">
          <mxGeometry y="26" width="340" height="24" as="geometry" />
        </mxCell>
        <mxCell id="RlJB3CUcUBt8CbnHZNZM-63" value="int - id" style="text;strokeColor=none;fillColor=none;align=left;verticalAlign=top;spacingLeft=4;spacingRight=4;overflow=hidden;rotatable=0;points=[[0,0.5],[1,0.5]];portConstraint=eastwest;whiteSpace=wrap;html=1;" parent="RlJB3CUcUBt8CbnHZNZM-57" vertex="1">
          <mxGeometry y="50" width="340" height="26" as="geometry" />
        </mxCell>
        <mxCell id="RlJB3CUcUBt8CbnHZNZM-64" value="array - clients_found" style="text;strokeColor=none;fillColor=none;align=left;verticalAlign=top;spacingLeft=4;spacingRight=4;overflow=hidden;rotatable=0;points=[[0,0.5],[1,0.5]];portConstraint=eastwest;whiteSpace=wrap;html=1;" parent="RlJB3CUcUBt8CbnHZNZM-57" vertex="1">
          <mxGeometry y="76" width="340" height="26" as="geometry" />
        </mxCell>
        <mxCell id="RlJB3CUcUBt8CbnHZNZM-65" value="map - dic_clients" style="text;strokeColor=none;fillColor=none;align=left;verticalAlign=top;spacingLeft=4;spacingRight=4;overflow=hidden;rotatable=0;points=[[0,0.5],[1,0.5]];portConstraint=eastwest;whiteSpace=wrap;html=1;" parent="RlJB3CUcUBt8CbnHZNZM-57" vertex="1">
          <mxGeometry y="102" width="340" height="26" as="geometry" />
        </mxCell>
        <mxCell id="RlJB3CUcUBt8CbnHZNZM-67" value="int - mission_type" style="text;strokeColor=none;fillColor=none;align=left;verticalAlign=top;spacingLeft=4;spacingRight=4;overflow=hidden;rotatable=0;points=[[0,0.5],[1,0.5]];portConstraint=eastwest;whiteSpace=wrap;html=1;" parent="RlJB3CUcUBt8CbnHZNZM-57" vertex="1">
          <mxGeometry y="128" width="340" height="26" as="geometry" />
        </mxCell>
        <mxCell id="RlJB3CUcUBt8CbnHZNZM-66" value="Vector3 - positions" style="text;strokeColor=none;fillColor=none;align=left;verticalAlign=top;spacingLeft=4;spacingRight=4;overflow=hidden;rotatable=0;points=[[0,0.5],[1,0.5]];portConstraint=eastwest;whiteSpace=wrap;html=1;" parent="RlJB3CUcUBt8CbnHZNZM-57" vertex="1">
          <mxGeometry y="154" width="340" height="26" as="geometry" />
        </mxCell>
        <mxCell id="RlJB3CUcUBt8CbnHZNZM-59" value="" style="line;html=1;strokeWidth=1;align=left;verticalAlign=middle;spacingTop=-1;spacingLeft=3;spacingRight=3;rotatable=0;labelPosition=right;points=[];portConstraint=eastwest;" parent="RlJB3CUcUBt8CbnHZNZM-57" vertex="1">
          <mxGeometry y="180" width="340" height="8" as="geometry" />
        </mxCell>
        <mxCell id="RlJB3CUcUBt8CbnHZNZM-60" value="Services/Topics" style="html=1;whiteSpace=wrap;" parent="RlJB3CUcUBt8CbnHZNZM-57" vertex="1">
          <mxGeometry y="188" width="340" height="24" as="geometry" />
        </mxCell>
        <mxCell id="RlJB3CUcUBt8CbnHZNZM-68" value="Service - Landed - /drone/landed" style="text;strokeColor=none;fillColor=none;align=left;verticalAlign=top;spacingLeft=4;spacingRight=4;overflow=hidden;rotatable=0;points=[[0,0.5],[1,0.5]];portConstraint=eastwest;whiteSpace=wrap;html=1;" parent="RlJB3CUcUBt8CbnHZNZM-57" vertex="1">
          <mxGeometry y="212" width="340" height="26" as="geometry" />
        </mxCell>
        <mxCell id="RlJB3CUcUBt8CbnHZNZM-71" value="Sub - DroneStatus - /drone/search/status" style="text;strokeColor=none;fillColor=none;align=left;verticalAlign=top;spacingLeft=4;spacingRight=4;overflow=hidden;rotatable=0;points=[[0,0.5],[1,0.5]];portConstraint=eastwest;whiteSpace=wrap;html=1;" parent="RlJB3CUcUBt8CbnHZNZM-57" vertex="1">
          <mxGeometry y="238" width="340" height="26" as="geometry" />
        </mxCell>
        <mxCell id="RlJB3CUcUBt8CbnHZNZM-70" value="Pub - ClientsFound - /drone/clients_found" style="text;strokeColor=none;fillColor=none;align=left;verticalAlign=top;spacingLeft=4;spacingRight=4;overflow=hidden;rotatable=0;points=[[0,0.5],[1,0.5]];portConstraint=eastwest;whiteSpace=wrap;html=1;" parent="RlJB3CUcUBt8CbnHZNZM-57" vertex="1">
          <mxGeometry y="264" width="340" height="26" as="geometry" />
        </mxCell>
        <mxCell id="RlJB3CUcUBt8CbnHZNZM-69" value="Sub - ClientInformation - /clients" style="text;strokeColor=none;fillColor=none;align=left;verticalAlign=top;spacingLeft=4;spacingRight=4;overflow=hidden;rotatable=0;points=[[0,0.5],[1,0.5]];portConstraint=eastwest;whiteSpace=wrap;html=1;" parent="RlJB3CUcUBt8CbnHZNZM-57" vertex="1">
          <mxGeometry y="290" width="340" height="26" as="geometry" />
        </mxCell>
        <mxCell id="RlJB3CUcUBt8CbnHZNZM-61" value="Methods" style="html=1;whiteSpace=wrap;" parent="RlJB3CUcUBt8CbnHZNZM-57" vertex="1">
          <mxGeometry y="316" width="340" height="24" as="geometry" />
        </mxCell>
        <mxCell id="RlJB3CUcUBt8CbnHZNZM-72" value="Drone Landed - Tells clients that this drone has landed" style="text;strokeColor=none;fillColor=none;align=left;verticalAlign=top;spacingLeft=4;spacingRight=4;overflow=hidden;rotatable=0;points=[[0,0.5],[1,0.5]];portConstraint=eastwest;whiteSpace=wrap;html=1;" parent="RlJB3CUcUBt8CbnHZNZM-57" vertex="1">
          <mxGeometry y="340" width="340" height="26" as="geometry" />
        </mxCell>
        <mxCell id="RlJB3CUcUBt8CbnHZNZM-62" value="Send Clients - Sends clients to everyone who wants to know" style="text;strokeColor=none;fillColor=none;align=left;verticalAlign=top;spacingLeft=4;spacingRight=4;overflow=hidden;rotatable=0;points=[[0,0.5],[1,0.5]];portConstraint=eastwest;whiteSpace=wrap;html=1;" parent="RlJB3CUcUBt8CbnHZNZM-57" vertex="1">
          <mxGeometry y="366" width="340" height="24" as="geometry" />
        </mxCell>
        <mxCell id="RlJB3CUcUBt8CbnHZNZM-73" value="Client Callback - Client was found" style="text;strokeColor=none;fillColor=none;align=left;verticalAlign=top;spacingLeft=4;spacingRight=4;overflow=hidden;rotatable=0;points=[[0,0.5],[1,0.5]];portConstraint=eastwest;whiteSpace=wrap;html=1;" parent="RlJB3CUcUBt8CbnHZNZM-57" vertex="1">
          <mxGeometry y="390" width="340" height="26" as="geometry" />
        </mxCell>
        <mxCell id="RlJB3CUcUBt8CbnHZNZM-74" value="Drone Status - Publishes some information about drone status" style="text;strokeColor=none;fillColor=none;align=left;verticalAlign=top;spacingLeft=4;spacingRight=4;overflow=hidden;rotatable=0;points=[[0,0.5],[1,0.5]];portConstraint=eastwest;whiteSpace=wrap;html=1;" parent="RlJB3CUcUBt8CbnHZNZM-57" vertex="1">
          <mxGeometry y="416" width="340" height="44" as="geometry" />
        </mxCell>
        <mxCell id="RlJB3CUcUBt8CbnHZNZM-75" value="Send Mission Status - Sends mission status" style="text;strokeColor=none;fillColor=none;align=left;verticalAlign=top;spacingLeft=4;spacingRight=4;overflow=hidden;rotatable=0;points=[[0,0.5],[1,0.5]];portConstraint=eastwest;whiteSpace=wrap;html=1;" parent="RlJB3CUcUBt8CbnHZNZM-57" vertex="1">
          <mxGeometry y="460" width="340" height="26" as="geometry" />
        </mxCell>
        <mxCell id="RlJB3CUcUBt8CbnHZNZM-76" value="Send Drone Positions - Sends drone&#39;s position" style="text;strokeColor=none;fillColor=none;align=left;verticalAlign=top;spacingLeft=4;spacingRight=4;overflow=hidden;rotatable=0;points=[[0,0.5],[1,0.5]];portConstraint=eastwest;whiteSpace=wrap;html=1;" parent="RlJB3CUcUBt8CbnHZNZM-57" vertex="1">
          <mxGeometry y="486" width="340" height="26" as="geometry" />
        </mxCell>
        <mxCell id="RlJB3CUcUBt8CbnHZNZM-77" value="DronesLaunch" style="swimlane;fontStyle=2;align=center;verticalAlign=top;childLayout=stackLayout;horizontal=1;startSize=26;horizontalStack=0;resizeParent=1;resizeLast=0;collapsible=1;marginBottom=0;rounded=0;shadow=0;strokeWidth=1;" parent="WIyWlLk6GJQsqaUBKTNV-1" vertex="1">
          <mxGeometry x="1014" y="1780" width="340" height="150" as="geometry">
            <mxRectangle x="230" y="140" width="160" height="26" as="alternateBounds" />
          </mxGeometry>
        </mxCell>
        <mxCell id="RlJB3CUcUBt8CbnHZNZM-78" value="Attributes" style="html=1;whiteSpace=wrap;" parent="RlJB3CUcUBt8CbnHZNZM-77" vertex="1">
          <mxGeometry y="26" width="340" height="24" as="geometry" />
        </mxCell>
        <mxCell id="RlJB3CUcUBt8CbnHZNZM-79" value="" style="line;html=1;strokeWidth=1;align=left;verticalAlign=middle;spacingTop=-1;spacingLeft=3;spacingRight=3;rotatable=0;labelPosition=right;points=[];portConstraint=eastwest;" parent="RlJB3CUcUBt8CbnHZNZM-77" vertex="1">
          <mxGeometry y="50" width="340" height="8" as="geometry" />
        </mxCell>
        <mxCell id="RlJB3CUcUBt8CbnHZNZM-80" value="Services/Topics" style="html=1;whiteSpace=wrap;" parent="RlJB3CUcUBt8CbnHZNZM-77" vertex="1">
          <mxGeometry y="58" width="340" height="24" as="geometry" />
        </mxCell>
        <mxCell id="RlJB3CUcUBt8CbnHZNZM-81" value="Methods" style="html=1;whiteSpace=wrap;" parent="RlJB3CUcUBt8CbnHZNZM-77" vertex="1">
          <mxGeometry y="82" width="340" height="24" as="geometry" />
        </mxCell>
        <mxCell id="RlJB3CUcUBt8CbnHZNZM-82" value="Generate Launch Description - Generates Drones with a given position" style="text;strokeColor=none;fillColor=none;align=left;verticalAlign=top;spacingLeft=4;spacingRight=4;overflow=hidden;rotatable=0;points=[[0,0.5],[1,0.5]];portConstraint=eastwest;whiteSpace=wrap;html=1;" parent="RlJB3CUcUBt8CbnHZNZM-77" vertex="1">
          <mxGeometry y="106" width="340" height="34" as="geometry" />
        </mxCell>
        <mxCell id="RlJB3CUcUBt8CbnHZNZM-83" value="GZBridgeLaunch" style="swimlane;fontStyle=2;align=center;verticalAlign=top;childLayout=stackLayout;horizontal=1;startSize=26;horizontalStack=0;resizeParent=1;resizeLast=0;collapsible=1;marginBottom=0;rounded=0;shadow=0;strokeWidth=1;" parent="WIyWlLk6GJQsqaUBKTNV-1" vertex="1">
          <mxGeometry x="1014" y="2114" width="340" height="150" as="geometry">
            <mxRectangle x="230" y="140" width="160" height="26" as="alternateBounds" />
          </mxGeometry>
        </mxCell>
        <mxCell id="RlJB3CUcUBt8CbnHZNZM-84" value="Attributes" style="html=1;whiteSpace=wrap;" parent="RlJB3CUcUBt8CbnHZNZM-83" vertex="1">
          <mxGeometry y="26" width="340" height="24" as="geometry" />
        </mxCell>
        <mxCell id="RlJB3CUcUBt8CbnHZNZM-85" value="" style="line;html=1;strokeWidth=1;align=left;verticalAlign=middle;spacingTop=-1;spacingLeft=3;spacingRight=3;rotatable=0;labelPosition=right;points=[];portConstraint=eastwest;" parent="RlJB3CUcUBt8CbnHZNZM-83" vertex="1">
          <mxGeometry y="50" width="340" height="8" as="geometry" />
        </mxCell>
        <mxCell id="RlJB3CUcUBt8CbnHZNZM-86" value="Services/Topics" style="html=1;whiteSpace=wrap;" parent="RlJB3CUcUBt8CbnHZNZM-83" vertex="1">
          <mxGeometry y="58" width="340" height="24" as="geometry" />
        </mxCell>
        <mxCell id="RlJB3CUcUBt8CbnHZNZM-87" value="Methods" style="html=1;whiteSpace=wrap;" parent="RlJB3CUcUBt8CbnHZNZM-83" vertex="1">
          <mxGeometry y="82" width="340" height="24" as="geometry" />
        </mxCell>
        <mxCell id="RlJB3CUcUBt8CbnHZNZM-88" value="Generate Launch Description - Generates Bridges for each drone" style="text;strokeColor=none;fillColor=none;align=left;verticalAlign=top;spacingLeft=4;spacingRight=4;overflow=hidden;rotatable=0;points=[[0,0.5],[1,0.5]];portConstraint=eastwest;whiteSpace=wrap;html=1;" parent="RlJB3CUcUBt8CbnHZNZM-83" vertex="1">
          <mxGeometry y="106" width="340" height="44" as="geometry" />
        </mxCell>
        <mxCell id="RlJB3CUcUBt8CbnHZNZM-89" value="GoToServiceLaunch" style="swimlane;fontStyle=2;align=center;verticalAlign=top;childLayout=stackLayout;horizontal=1;startSize=26;horizontalStack=0;resizeParent=1;resizeLast=0;collapsible=1;marginBottom=0;rounded=0;shadow=0;strokeWidth=1;" parent="WIyWlLk6GJQsqaUBKTNV-1" vertex="1">
          <mxGeometry x="1014" y="1950" width="340" height="150" as="geometry">
            <mxRectangle x="230" y="140" width="160" height="26" as="alternateBounds" />
          </mxGeometry>
        </mxCell>
        <mxCell id="RlJB3CUcUBt8CbnHZNZM-90" value="Attributes" style="html=1;whiteSpace=wrap;" parent="RlJB3CUcUBt8CbnHZNZM-89" vertex="1">
          <mxGeometry y="26" width="340" height="24" as="geometry" />
        </mxCell>
        <mxCell id="RlJB3CUcUBt8CbnHZNZM-91" value="" style="line;html=1;strokeWidth=1;align=left;verticalAlign=middle;spacingTop=-1;spacingLeft=3;spacingRight=3;rotatable=0;labelPosition=right;points=[];portConstraint=eastwest;" parent="RlJB3CUcUBt8CbnHZNZM-89" vertex="1">
          <mxGeometry y="50" width="340" height="8" as="geometry" />
        </mxCell>
        <mxCell id="RlJB3CUcUBt8CbnHZNZM-92" value="Services/Topics" style="html=1;whiteSpace=wrap;" parent="RlJB3CUcUBt8CbnHZNZM-89" vertex="1">
          <mxGeometry y="58" width="340" height="24" as="geometry" />
        </mxCell>
        <mxCell id="RlJB3CUcUBt8CbnHZNZM-93" value="Methods" style="html=1;whiteSpace=wrap;" parent="RlJB3CUcUBt8CbnHZNZM-89" vertex="1">
          <mxGeometry y="82" width="340" height="24" as="geometry" />
        </mxCell>
        <mxCell id="RlJB3CUcUBt8CbnHZNZM-94" value="Generate Launch Description - Generates GoToService for each drone" style="text;strokeColor=none;fillColor=none;align=left;verticalAlign=top;spacingLeft=4;spacingRight=4;overflow=hidden;rotatable=0;points=[[0,0.5],[1,0.5]];portConstraint=eastwest;whiteSpace=wrap;html=1;" parent="RlJB3CUcUBt8CbnHZNZM-89" vertex="1">
          <mxGeometry y="106" width="340" height="34" as="geometry" />
        </mxCell>
        <mxCell id="7bcEWOuLD8hm9Ksaf6sa-1" value="" style="shape=folder;fontStyle=1;spacingTop=10;tabWidth=40;tabHeight=14;tabPosition=left;html=1;whiteSpace=wrap;fillColor=none;" vertex="1" parent="WIyWlLk6GJQsqaUBKTNV-1">
          <mxGeometry x="20" y="940" width="640" height="1200" as="geometry" />
        </mxCell>
        <mxCell id="7bcEWOuLD8hm9Ksaf6sa-2" value="Interfaces" style="text;html=1;align=center;verticalAlign=middle;whiteSpace=wrap;rounded=0;" vertex="1" parent="WIyWlLk6GJQsqaUBKTNV-1">
          <mxGeometry x="14" y="922" width="79" height="48" as="geometry" />
        </mxCell>
        <mxCell id="7bcEWOuLD8hm9Ksaf6sa-3" value="" style="shape=folder;fontStyle=1;spacingTop=10;tabWidth=40;tabHeight=14;tabPosition=left;html=1;whiteSpace=wrap;fillColor=none;" vertex="1" parent="WIyWlLk6GJQsqaUBKTNV-1">
          <mxGeometry x="40" y="977" width="610" height="503" as="geometry" />
        </mxCell>
        <mxCell id="7bcEWOuLD8hm9Ksaf6sa-5" value="" style="shape=folder;fontStyle=1;spacingTop=10;tabWidth=40;tabHeight=14;tabPosition=left;html=1;whiteSpace=wrap;fillColor=none;" vertex="1" parent="WIyWlLk6GJQsqaUBKTNV-1">
          <mxGeometry x="40" y="1570" width="610" height="550" as="geometry" />
        </mxCell>
        <mxCell id="7bcEWOuLD8hm9Ksaf6sa-6" value="Message" style="text;html=1;align=center;verticalAlign=middle;whiteSpace=wrap;rounded=0;" vertex="1" parent="WIyWlLk6GJQsqaUBKTNV-1">
          <mxGeometry x="29" y="966" width="72" height="38" as="geometry" />
        </mxCell>
        <mxCell id="7bcEWOuLD8hm9Ksaf6sa-7" value="Service" style="text;html=1;align=center;verticalAlign=middle;whiteSpace=wrap;rounded=0;" vertex="1" parent="WIyWlLk6GJQsqaUBKTNV-1">
          <mxGeometry x="29" y="1553" width="79" height="48" as="geometry" />
        </mxCell>
        <mxCell id="7bcEWOuLD8hm9Ksaf6sa-8" value="ClientInformation" style="swimlane;fontStyle=0;childLayout=stackLayout;horizontal=1;startSize=26;fillColor=none;horizontalStack=0;resizeParent=1;resizeParentMax=0;resizeLast=0;collapsible=1;marginBottom=0;whiteSpace=wrap;html=1;" vertex="1" parent="WIyWlLk6GJQsqaUBKTNV-1">
          <mxGeometry x="60" y="1030" width="140" height="104" as="geometry" />
        </mxCell>
        <mxCell id="7bcEWOuLD8hm9Ksaf6sa-9" value="uint32 - id" style="text;strokeColor=none;fillColor=none;align=left;verticalAlign=top;spacingLeft=4;spacingRight=4;overflow=hidden;rotatable=0;points=[[0,0.5],[1,0.5]];portConstraint=eastwest;whiteSpace=wrap;html=1;" vertex="1" parent="7bcEWOuLD8hm9Ksaf6sa-8">
          <mxGeometry y="26" width="140" height="26" as="geometry" />
        </mxCell>
        <mxCell id="7bcEWOuLD8hm9Ksaf6sa-10" value="uint32 - drone_id" style="text;strokeColor=none;fillColor=none;align=left;verticalAlign=top;spacingLeft=4;spacingRight=4;overflow=hidden;rotatable=0;points=[[0,0.5],[1,0.5]];portConstraint=eastwest;whiteSpace=wrap;html=1;" vertex="1" parent="7bcEWOuLD8hm9Ksaf6sa-8">
          <mxGeometry y="52" width="140" height="26" as="geometry" />
        </mxCell>
        <mxCell id="7bcEWOuLD8hm9Ksaf6sa-11" value="Vector3 - coords" style="text;strokeColor=none;fillColor=none;align=left;verticalAlign=top;spacingLeft=4;spacingRight=4;overflow=hidden;rotatable=0;points=[[0,0.5],[1,0.5]];portConstraint=eastwest;whiteSpace=wrap;html=1;" vertex="1" parent="7bcEWOuLD8hm9Ksaf6sa-8">
          <mxGeometry y="78" width="140" height="26" as="geometry" />
        </mxCell>
        <mxCell id="7bcEWOuLD8hm9Ksaf6sa-16" value="DronePosition" style="swimlane;fontStyle=0;childLayout=stackLayout;horizontal=1;startSize=26;fillColor=none;horizontalStack=0;resizeParent=1;resizeParentMax=0;resizeLast=0;collapsible=1;marginBottom=0;whiteSpace=wrap;html=1;" vertex="1" parent="WIyWlLk6GJQsqaUBKTNV-1">
          <mxGeometry x="60" y="1150" width="140" height="104" as="geometry" />
        </mxCell>
        <mxCell id="7bcEWOuLD8hm9Ksaf6sa-17" value="uint32 - id" style="text;strokeColor=none;fillColor=none;align=left;verticalAlign=top;spacingLeft=4;spacingRight=4;overflow=hidden;rotatable=0;points=[[0,0.5],[1,0.5]];portConstraint=eastwest;whiteSpace=wrap;html=1;" vertex="1" parent="7bcEWOuLD8hm9Ksaf6sa-16">
          <mxGeometry y="26" width="140" height="26" as="geometry" />
        </mxCell>
        <mxCell id="7bcEWOuLD8hm9Ksaf6sa-18" value="uint32 - mission" style="text;strokeColor=none;fillColor=none;align=left;verticalAlign=top;spacingLeft=4;spacingRight=4;overflow=hidden;rotatable=0;points=[[0,0.5],[1,0.5]];portConstraint=eastwest;whiteSpace=wrap;html=1;" vertex="1" parent="7bcEWOuLD8hm9Ksaf6sa-16">
          <mxGeometry y="52" width="140" height="26" as="geometry" />
        </mxCell>
        <mxCell id="7bcEWOuLD8hm9Ksaf6sa-19" value="Vector3 - position" style="text;strokeColor=none;fillColor=none;align=left;verticalAlign=top;spacingLeft=4;spacingRight=4;overflow=hidden;rotatable=0;points=[[0,0.5],[1,0.5]];portConstraint=eastwest;whiteSpace=wrap;html=1;" vertex="1" parent="7bcEWOuLD8hm9Ksaf6sa-16">
          <mxGeometry y="78" width="140" height="26" as="geometry" />
        </mxCell>
        <mxCell id="7bcEWOuLD8hm9Ksaf6sa-20" value="MoveTo" style="swimlane;fontStyle=0;childLayout=stackLayout;horizontal=1;startSize=26;fillColor=none;horizontalStack=0;resizeParent=1;resizeParentMax=0;resizeLast=0;collapsible=1;marginBottom=0;whiteSpace=wrap;html=1;" vertex="1" parent="WIyWlLk6GJQsqaUBKTNV-1">
          <mxGeometry x="273" y="1280" width="140" height="78" as="geometry" />
        </mxCell>
        <mxCell id="7bcEWOuLD8hm9Ksaf6sa-22" value="uint32 - mission" style="text;strokeColor=none;fillColor=none;align=left;verticalAlign=top;spacingLeft=4;spacingRight=4;overflow=hidden;rotatable=0;points=[[0,0.5],[1,0.5]];portConstraint=eastwest;whiteSpace=wrap;html=1;" vertex="1" parent="7bcEWOuLD8hm9Ksaf6sa-20">
          <mxGeometry y="26" width="140" height="26" as="geometry" />
        </mxCell>
        <mxCell id="7bcEWOuLD8hm9Ksaf6sa-23" value="Vector3 - coords" style="text;strokeColor=none;fillColor=none;align=left;verticalAlign=top;spacingLeft=4;spacingRight=4;overflow=hidden;rotatable=0;points=[[0,0.5],[1,0.5]];portConstraint=eastwest;whiteSpace=wrap;html=1;" vertex="1" parent="7bcEWOuLD8hm9Ksaf6sa-20">
          <mxGeometry y="52" width="140" height="26" as="geometry" />
        </mxCell>
        <mxCell id="7bcEWOuLD8hm9Ksaf6sa-24" value="DroneStatus" style="swimlane;fontStyle=0;childLayout=stackLayout;horizontal=1;startSize=26;fillColor=none;horizontalStack=0;resizeParent=1;resizeParentMax=0;resizeLast=0;collapsible=1;marginBottom=0;whiteSpace=wrap;html=1;" vertex="1" parent="WIyWlLk6GJQsqaUBKTNV-1">
          <mxGeometry x="60" y="1280" width="140" height="182" as="geometry" />
        </mxCell>
        <mxCell id="7bcEWOuLD8hm9Ksaf6sa-25" value="float64 - percentage" style="text;strokeColor=none;fillColor=none;align=left;verticalAlign=top;spacingLeft=4;spacingRight=4;overflow=hidden;rotatable=0;points=[[0,0.5],[1,0.5]];portConstraint=eastwest;whiteSpace=wrap;html=1;" vertex="1" parent="7bcEWOuLD8hm9Ksaf6sa-24">
          <mxGeometry y="26" width="140" height="26" as="geometry" />
        </mxCell>
        <mxCell id="7bcEWOuLD8hm9Ksaf6sa-26" value="uint32 - mission" style="text;strokeColor=none;fillColor=none;align=left;verticalAlign=top;spacingLeft=4;spacingRight=4;overflow=hidden;rotatable=0;points=[[0,0.5],[1,0.5]];portConstraint=eastwest;whiteSpace=wrap;html=1;" vertex="1" parent="7bcEWOuLD8hm9Ksaf6sa-24">
          <mxGeometry y="52" width="140" height="26" as="geometry" />
        </mxCell>
        <mxCell id="7bcEWOuLD8hm9Ksaf6sa-36" value="Point - drone_position" style="text;strokeColor=none;fillColor=none;align=left;verticalAlign=top;spacingLeft=4;spacingRight=4;overflow=hidden;rotatable=0;points=[[0,0.5],[1,0.5]];portConstraint=eastwest;whiteSpace=wrap;html=1;" vertex="1" parent="7bcEWOuLD8hm9Ksaf6sa-24">
          <mxGeometry y="78" width="140" height="26" as="geometry" />
        </mxCell>
        <mxCell id="7bcEWOuLD8hm9Ksaf6sa-38" value="uint32 - id" style="text;strokeColor=none;fillColor=none;align=left;verticalAlign=top;spacingLeft=4;spacingRight=4;overflow=hidden;rotatable=0;points=[[0,0.5],[1,0.5]];portConstraint=eastwest;whiteSpace=wrap;html=1;" vertex="1" parent="7bcEWOuLD8hm9Ksaf6sa-24">
          <mxGeometry y="104" width="140" height="26" as="geometry" />
        </mxCell>
        <mxCell id="7bcEWOuLD8hm9Ksaf6sa-37" value="uint32 - status" style="text;strokeColor=none;fillColor=none;align=left;verticalAlign=top;spacingLeft=4;spacingRight=4;overflow=hidden;rotatable=0;points=[[0,0.5],[1,0.5]];portConstraint=eastwest;whiteSpace=wrap;html=1;" vertex="1" parent="7bcEWOuLD8hm9Ksaf6sa-24">
          <mxGeometry y="130" width="140" height="26" as="geometry" />
        </mxCell>
        <mxCell id="7bcEWOuLD8hm9Ksaf6sa-27" value="uint32 - drone_range" style="text;strokeColor=none;fillColor=none;align=left;verticalAlign=top;spacingLeft=4;spacingRight=4;overflow=hidden;rotatable=0;points=[[0,0.5],[1,0.5]];portConstraint=eastwest;whiteSpace=wrap;html=1;" vertex="1" parent="7bcEWOuLD8hm9Ksaf6sa-24">
          <mxGeometry y="156" width="140" height="26" as="geometry" />
        </mxCell>
        <mxCell id="7bcEWOuLD8hm9Ksaf6sa-28" value="WayPoint" style="swimlane;fontStyle=0;childLayout=stackLayout;horizontal=1;startSize=26;fillColor=none;horizontalStack=0;resizeParent=1;resizeParentMax=0;resizeLast=0;collapsible=1;marginBottom=0;whiteSpace=wrap;html=1;" vertex="1" parent="WIyWlLk6GJQsqaUBKTNV-1">
          <mxGeometry x="273" y="1150" width="140" height="104" as="geometry" />
        </mxCell>
        <mxCell id="7bcEWOuLD8hm9Ksaf6sa-29" value="Vector3 - position" style="text;strokeColor=none;fillColor=none;align=left;verticalAlign=top;spacingLeft=4;spacingRight=4;overflow=hidden;rotatable=0;points=[[0,0.5],[1,0.5]];portConstraint=eastwest;whiteSpace=wrap;html=1;" vertex="1" parent="7bcEWOuLD8hm9Ksaf6sa-28">
          <mxGeometry y="26" width="140" height="26" as="geometry" />
        </mxCell>
        <mxCell id="7bcEWOuLD8hm9Ksaf6sa-30" value="Float64 - alpha" style="text;strokeColor=none;fillColor=none;align=left;verticalAlign=top;spacingLeft=4;spacingRight=4;overflow=hidden;rotatable=0;points=[[0,0.5],[1,0.5]];portConstraint=eastwest;whiteSpace=wrap;html=1;" vertex="1" parent="7bcEWOuLD8hm9Ksaf6sa-28">
          <mxGeometry y="52" width="140" height="26" as="geometry" />
        </mxCell>
        <mxCell id="7bcEWOuLD8hm9Ksaf6sa-31" value="Float64 - vel" style="text;strokeColor=none;fillColor=none;align=left;verticalAlign=top;spacingLeft=4;spacingRight=4;overflow=hidden;rotatable=0;points=[[0,0.5],[1,0.5]];portConstraint=eastwest;whiteSpace=wrap;html=1;" vertex="1" parent="7bcEWOuLD8hm9Ksaf6sa-28">
          <mxGeometry y="78" width="140" height="26" as="geometry" />
        </mxCell>
        <mxCell id="7bcEWOuLD8hm9Ksaf6sa-32" value="ClientsFound" style="swimlane;fontStyle=0;childLayout=stackLayout;horizontal=1;startSize=26;fillColor=none;horizontalStack=0;resizeParent=1;resizeParentMax=0;resizeLast=0;collapsible=1;marginBottom=0;whiteSpace=wrap;html=1;" vertex="1" parent="WIyWlLk6GJQsqaUBKTNV-1">
          <mxGeometry x="273" y="1030" width="140" height="78" as="geometry" />
        </mxCell>
        <mxCell id="7bcEWOuLD8hm9Ksaf6sa-33" value="uint32 - id" style="text;strokeColor=none;fillColor=none;align=left;verticalAlign=top;spacingLeft=4;spacingRight=4;overflow=hidden;rotatable=0;points=[[0,0.5],[1,0.5]];portConstraint=eastwest;whiteSpace=wrap;html=1;" vertex="1" parent="7bcEWOuLD8hm9Ksaf6sa-32">
          <mxGeometry y="26" width="140" height="26" as="geometry" />
        </mxCell>
        <mxCell id="7bcEWOuLD8hm9Ksaf6sa-35" value="Vector3 - clients" style="text;strokeColor=none;fillColor=none;align=left;verticalAlign=top;spacingLeft=4;spacingRight=4;overflow=hidden;rotatable=0;points=[[0,0.5],[1,0.5]];portConstraint=eastwest;whiteSpace=wrap;html=1;" vertex="1" parent="7bcEWOuLD8hm9Ksaf6sa-32">
          <mxGeometry y="52" width="140" height="26" as="geometry" />
        </mxCell>
        <mxCell id="7bcEWOuLD8hm9Ksaf6sa-39" value="GoTo" style="swimlane;fontStyle=0;childLayout=stackLayout;horizontal=1;startSize=26;fillColor=none;horizontalStack=0;resizeParent=1;resizeParentMax=0;resizeLast=0;collapsible=1;marginBottom=0;whiteSpace=wrap;html=1;" vertex="1" parent="WIyWlLk6GJQsqaUBKTNV-1">
          <mxGeometry x="480" y="1176" width="140" height="104" as="geometry" />
        </mxCell>
        <mxCell id="7bcEWOuLD8hm9Ksaf6sa-40" value="WayPoint[] - positions" style="text;strokeColor=none;fillColor=none;align=left;verticalAlign=top;spacingLeft=4;spacingRight=4;overflow=hidden;rotatable=0;points=[[0,0.5],[1,0.5]];portConstraint=eastwest;whiteSpace=wrap;html=1;" vertex="1" parent="7bcEWOuLD8hm9Ksaf6sa-39">
          <mxGeometry y="26" width="140" height="26" as="geometry" />
        </mxCell>
        <mxCell id="7bcEWOuLD8hm9Ksaf6sa-41" value="uint32 - mission" style="text;strokeColor=none;fillColor=none;align=left;verticalAlign=top;spacingLeft=4;spacingRight=4;overflow=hidden;rotatable=0;points=[[0,0.5],[1,0.5]];portConstraint=eastwest;whiteSpace=wrap;html=1;" vertex="1" parent="7bcEWOuLD8hm9Ksaf6sa-39">
          <mxGeometry y="52" width="140" height="26" as="geometry" />
        </mxCell>
        <mxCell id="7bcEWOuLD8hm9Ksaf6sa-42" value="String - Hash" style="text;strokeColor=none;fillColor=none;align=left;verticalAlign=top;spacingLeft=4;spacingRight=4;overflow=hidden;rotatable=0;points=[[0,0.5],[1,0.5]];portConstraint=eastwest;whiteSpace=wrap;html=1;" vertex="1" parent="7bcEWOuLD8hm9Ksaf6sa-39">
          <mxGeometry y="78" width="140" height="26" as="geometry" />
        </mxCell>
        <mxCell id="7bcEWOuLD8hm9Ksaf6sa-43" value="MissionStatus" style="swimlane;fontStyle=0;childLayout=stackLayout;horizontal=1;startSize=26;fillColor=none;horizontalStack=0;resizeParent=1;resizeParentMax=0;resizeLast=0;collapsible=1;marginBottom=0;whiteSpace=wrap;html=1;" vertex="1" parent="WIyWlLk6GJQsqaUBKTNV-1">
          <mxGeometry x="480" y="1030" width="140" height="130" as="geometry" />
        </mxCell>
        <mxCell id="7bcEWOuLD8hm9Ksaf6sa-44" value="uint32 - id" style="text;strokeColor=none;fillColor=none;align=left;verticalAlign=top;spacingLeft=4;spacingRight=4;overflow=hidden;rotatable=0;points=[[0,0.5],[1,0.5]];portConstraint=eastwest;whiteSpace=wrap;html=1;" vertex="1" parent="7bcEWOuLD8hm9Ksaf6sa-43">
          <mxGeometry y="26" width="140" height="26" as="geometry" />
        </mxCell>
        <mxCell id="7bcEWOuLD8hm9Ksaf6sa-45" value="float64 - percentage" style="text;strokeColor=none;fillColor=none;align=left;verticalAlign=top;spacingLeft=4;spacingRight=4;overflow=hidden;rotatable=0;points=[[0,0.5],[1,0.5]];portConstraint=eastwest;whiteSpace=wrap;html=1;" vertex="1" parent="7bcEWOuLD8hm9Ksaf6sa-43">
          <mxGeometry y="52" width="140" height="26" as="geometry" />
        </mxCell>
        <mxCell id="7bcEWOuLD8hm9Ksaf6sa-51" value="uint32 - drone_status" style="text;strokeColor=none;fillColor=none;align=left;verticalAlign=top;spacingLeft=4;spacingRight=4;overflow=hidden;rotatable=0;points=[[0,0.5],[1,0.5]];portConstraint=eastwest;whiteSpace=wrap;html=1;" vertex="1" parent="7bcEWOuLD8hm9Ksaf6sa-43">
          <mxGeometry y="78" width="140" height="26" as="geometry" />
        </mxCell>
        <mxCell id="7bcEWOuLD8hm9Ksaf6sa-46" value="uint32 - mission_type" style="text;strokeColor=none;fillColor=none;align=left;verticalAlign=top;spacingLeft=4;spacingRight=4;overflow=hidden;rotatable=0;points=[[0,0.5],[1,0.5]];portConstraint=eastwest;whiteSpace=wrap;html=1;" vertex="1" parent="7bcEWOuLD8hm9Ksaf6sa-43">
          <mxGeometry y="104" width="140" height="26" as="geometry" />
        </mxCell>
        <mxCell id="7bcEWOuLD8hm9Ksaf6sa-47" value="DroneTarget" style="swimlane;fontStyle=0;childLayout=stackLayout;horizontal=1;startSize=26;fillColor=none;horizontalStack=0;resizeParent=1;resizeParentMax=0;resizeLast=0;collapsible=1;marginBottom=0;whiteSpace=wrap;html=1;" vertex="1" parent="WIyWlLk6GJQsqaUBKTNV-1">
          <mxGeometry x="480" y="1319" width="140" height="78" as="geometry" />
        </mxCell>
        <mxCell id="7bcEWOuLD8hm9Ksaf6sa-48" value="uint32 - id" style="text;strokeColor=none;fillColor=none;align=left;verticalAlign=top;spacingLeft=4;spacingRight=4;overflow=hidden;rotatable=0;points=[[0,0.5],[1,0.5]];portConstraint=eastwest;whiteSpace=wrap;html=1;" vertex="1" parent="7bcEWOuLD8hm9Ksaf6sa-47">
          <mxGeometry y="26" width="140" height="26" as="geometry" />
        </mxCell>
        <mxCell id="7bcEWOuLD8hm9Ksaf6sa-50" value="Bool - target" style="text;strokeColor=none;fillColor=none;align=left;verticalAlign=top;spacingLeft=4;spacingRight=4;overflow=hidden;rotatable=0;points=[[0,0.5],[1,0.5]];portConstraint=eastwest;whiteSpace=wrap;html=1;" vertex="1" parent="7bcEWOuLD8hm9Ksaf6sa-47">
          <mxGeometry y="52" width="140" height="26" as="geometry" />
        </mxCell>
        <mxCell id="7bcEWOuLD8hm9Ksaf6sa-53" value="StopAndStartSearchPositions" style="swimlane;fontStyle=1;align=center;verticalAlign=top;childLayout=stackLayout;horizontal=1;startSize=26;horizontalStack=0;resizeParent=1;resizeParentMax=0;resizeLast=0;collapsible=1;marginBottom=0;whiteSpace=wrap;html=1;" vertex="1" parent="WIyWlLk6GJQsqaUBKTNV-1">
          <mxGeometry x="60" y="1610" width="180" height="86" as="geometry">
            <mxRectangle x="60" y="1610" width="200" height="30" as="alternateBounds" />
          </mxGeometry>
        </mxCell>
        <mxCell id="7bcEWOuLD8hm9Ksaf6sa-54" value="uint32 - status" style="text;strokeColor=none;fillColor=none;align=left;verticalAlign=top;spacingLeft=4;spacingRight=4;overflow=hidden;rotatable=0;points=[[0,0.5],[1,0.5]];portConstraint=eastwest;whiteSpace=wrap;html=1;" vertex="1" parent="7bcEWOuLD8hm9Ksaf6sa-53">
          <mxGeometry y="26" width="180" height="26" as="geometry" />
        </mxCell>
        <mxCell id="7bcEWOuLD8hm9Ksaf6sa-55" value="" style="line;strokeWidth=1;fillColor=none;align=left;verticalAlign=middle;spacingTop=-1;spacingLeft=3;spacingRight=3;rotatable=0;labelPosition=right;points=[];portConstraint=eastwest;strokeColor=inherit;" vertex="1" parent="7bcEWOuLD8hm9Ksaf6sa-53">
          <mxGeometry y="52" width="180" height="8" as="geometry" />
        </mxCell>
        <mxCell id="7bcEWOuLD8hm9Ksaf6sa-56" value="bool - success" style="text;strokeColor=none;fillColor=none;align=left;verticalAlign=top;spacingLeft=4;spacingRight=4;overflow=hidden;rotatable=0;points=[[0,0.5],[1,0.5]];portConstraint=eastwest;whiteSpace=wrap;html=1;" vertex="1" parent="7bcEWOuLD8hm9Ksaf6sa-53">
          <mxGeometry y="60" width="180" height="26" as="geometry" />
        </mxCell>
        <mxCell id="7bcEWOuLD8hm9Ksaf6sa-57" value="SpawnModel" style="swimlane;fontStyle=1;align=center;verticalAlign=top;childLayout=stackLayout;horizontal=1;startSize=26;horizontalStack=0;resizeParent=1;resizeParentMax=0;resizeLast=0;collapsible=1;marginBottom=0;whiteSpace=wrap;html=1;" vertex="1" parent="WIyWlLk6GJQsqaUBKTNV-1">
          <mxGeometry x="480" y="1601" width="140" height="190" as="geometry">
            <mxRectangle x="60" y="1610" width="200" height="30" as="alternateBounds" />
          </mxGeometry>
        </mxCell>
        <mxCell id="7bcEWOuLD8hm9Ksaf6sa-58" value="int32 - id" style="text;strokeColor=none;fillColor=none;align=left;verticalAlign=top;spacingLeft=4;spacingRight=4;overflow=hidden;rotatable=0;points=[[0,0.5],[1,0.5]];portConstraint=eastwest;whiteSpace=wrap;html=1;" vertex="1" parent="7bcEWOuLD8hm9Ksaf6sa-57">
          <mxGeometry y="26" width="140" height="26" as="geometry" />
        </mxCell>
        <mxCell id="7bcEWOuLD8hm9Ksaf6sa-65" value="int32 - x" style="text;strokeColor=none;fillColor=none;align=left;verticalAlign=top;spacingLeft=4;spacingRight=4;overflow=hidden;rotatable=0;points=[[0,0.5],[1,0.5]];portConstraint=eastwest;whiteSpace=wrap;html=1;" vertex="1" parent="7bcEWOuLD8hm9Ksaf6sa-57">
          <mxGeometry y="52" width="140" height="26" as="geometry" />
        </mxCell>
        <mxCell id="7bcEWOuLD8hm9Ksaf6sa-67" value="int32 - y" style="text;strokeColor=none;fillColor=none;align=left;verticalAlign=top;spacingLeft=4;spacingRight=4;overflow=hidden;rotatable=0;points=[[0,0.5],[1,0.5]];portConstraint=eastwest;whiteSpace=wrap;html=1;" vertex="1" parent="7bcEWOuLD8hm9Ksaf6sa-57">
          <mxGeometry y="78" width="140" height="26" as="geometry" />
        </mxCell>
        <mxCell id="7bcEWOuLD8hm9Ksaf6sa-68" value="int32 - z" style="text;strokeColor=none;fillColor=none;align=left;verticalAlign=top;spacingLeft=4;spacingRight=4;overflow=hidden;rotatable=0;points=[[0,0.5],[1,0.5]];portConstraint=eastwest;whiteSpace=wrap;html=1;" vertex="1" parent="7bcEWOuLD8hm9Ksaf6sa-57">
          <mxGeometry y="104" width="140" height="26" as="geometry" />
        </mxCell>
        <mxCell id="7bcEWOuLD8hm9Ksaf6sa-66" value="String - model" style="text;strokeColor=none;fillColor=none;align=left;verticalAlign=top;spacingLeft=4;spacingRight=4;overflow=hidden;rotatable=0;points=[[0,0.5],[1,0.5]];portConstraint=eastwest;whiteSpace=wrap;html=1;" vertex="1" parent="7bcEWOuLD8hm9Ksaf6sa-57">
          <mxGeometry y="130" width="140" height="26" as="geometry" />
        </mxCell>
        <mxCell id="7bcEWOuLD8hm9Ksaf6sa-59" value="" style="line;strokeWidth=1;fillColor=none;align=left;verticalAlign=middle;spacingTop=-1;spacingLeft=3;spacingRight=3;rotatable=0;labelPosition=right;points=[];portConstraint=eastwest;strokeColor=inherit;" vertex="1" parent="7bcEWOuLD8hm9Ksaf6sa-57">
          <mxGeometry y="156" width="140" height="8" as="geometry" />
        </mxCell>
        <mxCell id="7bcEWOuLD8hm9Ksaf6sa-60" value="bool - success" style="text;strokeColor=none;fillColor=none;align=left;verticalAlign=top;spacingLeft=4;spacingRight=4;overflow=hidden;rotatable=0;points=[[0,0.5],[1,0.5]];portConstraint=eastwest;whiteSpace=wrap;html=1;" vertex="1" parent="7bcEWOuLD8hm9Ksaf6sa-57">
          <mxGeometry y="164" width="140" height="26" as="geometry" />
        </mxCell>
        <mxCell id="7bcEWOuLD8hm9Ksaf6sa-61" value="Served" style="swimlane;fontStyle=1;align=center;verticalAlign=top;childLayout=stackLayout;horizontal=1;startSize=26;horizontalStack=0;resizeParent=1;resizeParentMax=0;resizeLast=0;collapsible=1;marginBottom=0;whiteSpace=wrap;html=1;" vertex="1" parent="WIyWlLk6GJQsqaUBKTNV-1">
          <mxGeometry x="273" y="1610" width="127" height="86" as="geometry">
            <mxRectangle x="60" y="1610" width="200" height="30" as="alternateBounds" />
          </mxGeometry>
        </mxCell>
        <mxCell id="7bcEWOuLD8hm9Ksaf6sa-62" value="int32 - id" style="text;strokeColor=none;fillColor=none;align=left;verticalAlign=top;spacingLeft=4;spacingRight=4;overflow=hidden;rotatable=0;points=[[0,0.5],[1,0.5]];portConstraint=eastwest;whiteSpace=wrap;html=1;" vertex="1" parent="7bcEWOuLD8hm9Ksaf6sa-61">
          <mxGeometry y="26" width="127" height="26" as="geometry" />
        </mxCell>
        <mxCell id="7bcEWOuLD8hm9Ksaf6sa-63" value="" style="line;strokeWidth=1;fillColor=none;align=left;verticalAlign=middle;spacingTop=-1;spacingLeft=3;spacingRight=3;rotatable=0;labelPosition=right;points=[];portConstraint=eastwest;strokeColor=inherit;" vertex="1" parent="7bcEWOuLD8hm9Ksaf6sa-61">
          <mxGeometry y="52" width="127" height="8" as="geometry" />
        </mxCell>
        <mxCell id="7bcEWOuLD8hm9Ksaf6sa-64" value="bool - success" style="text;strokeColor=none;fillColor=none;align=left;verticalAlign=top;spacingLeft=4;spacingRight=4;overflow=hidden;rotatable=0;points=[[0,0.5],[1,0.5]];portConstraint=eastwest;whiteSpace=wrap;html=1;" vertex="1" parent="7bcEWOuLD8hm9Ksaf6sa-61">
          <mxGeometry y="60" width="127" height="26" as="geometry" />
        </mxCell>
        <mxCell id="7bcEWOuLD8hm9Ksaf6sa-69" value="NewDrone" style="swimlane;fontStyle=1;align=center;verticalAlign=top;childLayout=stackLayout;horizontal=1;startSize=26;horizontalStack=0;resizeParent=1;resizeParentMax=0;resizeLast=0;collapsible=1;marginBottom=0;whiteSpace=wrap;html=1;" vertex="1" parent="WIyWlLk6GJQsqaUBKTNV-1">
          <mxGeometry x="270" y="1810" width="140" height="138" as="geometry">
            <mxRectangle x="60" y="1610" width="200" height="30" as="alternateBounds" />
          </mxGeometry>
        </mxCell>
        <mxCell id="7bcEWOuLD8hm9Ksaf6sa-70" value="uint32 - id" style="text;strokeColor=none;fillColor=none;align=left;verticalAlign=top;spacingLeft=4;spacingRight=4;overflow=hidden;rotatable=0;points=[[0,0.5],[1,0.5]];portConstraint=eastwest;whiteSpace=wrap;html=1;" vertex="1" parent="7bcEWOuLD8hm9Ksaf6sa-69">
          <mxGeometry y="26" width="140" height="26" as="geometry" />
        </mxCell>
        <mxCell id="7bcEWOuLD8hm9Ksaf6sa-73" value="Vector3 - coords" style="text;strokeColor=none;fillColor=none;align=left;verticalAlign=top;spacingLeft=4;spacingRight=4;overflow=hidden;rotatable=0;points=[[0,0.5],[1,0.5]];portConstraint=eastwest;whiteSpace=wrap;html=1;" vertex="1" parent="7bcEWOuLD8hm9Ksaf6sa-69">
          <mxGeometry y="52" width="140" height="26" as="geometry" />
        </mxCell>
        <mxCell id="7bcEWOuLD8hm9Ksaf6sa-74" value="uint32 - drone_range" style="text;strokeColor=none;fillColor=none;align=left;verticalAlign=top;spacingLeft=4;spacingRight=4;overflow=hidden;rotatable=0;points=[[0,0.5],[1,0.5]];portConstraint=eastwest;whiteSpace=wrap;html=1;" vertex="1" parent="7bcEWOuLD8hm9Ksaf6sa-69">
          <mxGeometry y="78" width="140" height="26" as="geometry" />
        </mxCell>
        <mxCell id="7bcEWOuLD8hm9Ksaf6sa-75" value="" style="line;strokeWidth=1;fillColor=none;align=left;verticalAlign=middle;spacingTop=-1;spacingLeft=3;spacingRight=3;rotatable=0;labelPosition=right;points=[];portConstraint=eastwest;strokeColor=inherit;" vertex="1" parent="7bcEWOuLD8hm9Ksaf6sa-69">
          <mxGeometry y="104" width="140" height="8" as="geometry" />
        </mxCell>
        <mxCell id="7bcEWOuLD8hm9Ksaf6sa-76" value="bool - success" style="text;strokeColor=none;fillColor=none;align=left;verticalAlign=top;spacingLeft=4;spacingRight=4;overflow=hidden;rotatable=0;points=[[0,0.5],[1,0.5]];portConstraint=eastwest;whiteSpace=wrap;html=1;" vertex="1" parent="7bcEWOuLD8hm9Ksaf6sa-69">
          <mxGeometry y="112" width="140" height="26" as="geometry" />
        </mxCell>
        <mxCell id="7bcEWOuLD8hm9Ksaf6sa-77" value="SearchPositions" style="swimlane;fontStyle=1;align=center;verticalAlign=top;childLayout=stackLayout;horizontal=1;startSize=26;horizontalStack=0;resizeParent=1;resizeParentMax=0;resizeLast=0;collapsible=1;marginBottom=0;whiteSpace=wrap;html=1;" vertex="1" parent="WIyWlLk6GJQsqaUBKTNV-1">
          <mxGeometry x="60" y="1810" width="150" height="138" as="geometry">
            <mxRectangle x="60" y="1610" width="200" height="30" as="alternateBounds" />
          </mxGeometry>
        </mxCell>
        <mxCell id="7bcEWOuLD8hm9Ksaf6sa-78" value="uint32 - id" style="text;strokeColor=none;fillColor=none;align=left;verticalAlign=top;spacingLeft=4;spacingRight=4;overflow=hidden;rotatable=0;points=[[0,0.5],[1,0.5]];portConstraint=eastwest;whiteSpace=wrap;html=1;" vertex="1" parent="7bcEWOuLD8hm9Ksaf6sa-77">
          <mxGeometry y="26" width="150" height="26" as="geometry" />
        </mxCell>
        <mxCell id="7bcEWOuLD8hm9Ksaf6sa-79" value="GoTo - positions" style="text;strokeColor=none;fillColor=none;align=left;verticalAlign=top;spacingLeft=4;spacingRight=4;overflow=hidden;rotatable=0;points=[[0,0.5],[1,0.5]];portConstraint=eastwest;whiteSpace=wrap;html=1;" vertex="1" parent="7bcEWOuLD8hm9Ksaf6sa-77">
          <mxGeometry y="52" width="150" height="26" as="geometry" />
        </mxCell>
        <mxCell id="7bcEWOuLD8hm9Ksaf6sa-82" value="uint32 - mission" style="text;strokeColor=none;fillColor=none;align=left;verticalAlign=top;spacingLeft=4;spacingRight=4;overflow=hidden;rotatable=0;points=[[0,0.5],[1,0.5]];portConstraint=eastwest;whiteSpace=wrap;html=1;" vertex="1" parent="7bcEWOuLD8hm9Ksaf6sa-77">
          <mxGeometry y="78" width="150" height="26" as="geometry" />
        </mxCell>
        <mxCell id="7bcEWOuLD8hm9Ksaf6sa-83" value="" style="line;strokeWidth=1;fillColor=none;align=left;verticalAlign=middle;spacingTop=-1;spacingLeft=3;spacingRight=3;rotatable=0;labelPosition=right;points=[];portConstraint=eastwest;strokeColor=inherit;" vertex="1" parent="7bcEWOuLD8hm9Ksaf6sa-77">
          <mxGeometry y="104" width="150" height="8" as="geometry" />
        </mxCell>
        <mxCell id="7bcEWOuLD8hm9Ksaf6sa-84" value="bool - success" style="text;strokeColor=none;fillColor=none;align=left;verticalAlign=top;spacingLeft=4;spacingRight=4;overflow=hidden;rotatable=0;points=[[0,0.5],[1,0.5]];portConstraint=eastwest;whiteSpace=wrap;html=1;" vertex="1" parent="7bcEWOuLD8hm9Ksaf6sa-77">
          <mxGeometry y="112" width="150" height="26" as="geometry" />
        </mxCell>
        <mxCell id="7bcEWOuLD8hm9Ksaf6sa-85" value="NewBaseStation" style="swimlane;fontStyle=1;align=center;verticalAlign=top;childLayout=stackLayout;horizontal=1;startSize=26;horizontalStack=0;resizeParent=1;resizeParentMax=0;resizeLast=0;collapsible=1;marginBottom=0;whiteSpace=wrap;html=1;" vertex="1" parent="WIyWlLk6GJQsqaUBKTNV-1">
          <mxGeometry x="480" y="1810" width="140" height="138" as="geometry">
            <mxRectangle x="60" y="1610" width="200" height="30" as="alternateBounds" />
          </mxGeometry>
        </mxCell>
        <mxCell id="7bcEWOuLD8hm9Ksaf6sa-86" value="int32 - id" style="text;strokeColor=none;fillColor=none;align=left;verticalAlign=top;spacingLeft=4;spacingRight=4;overflow=hidden;rotatable=0;points=[[0,0.5],[1,0.5]];portConstraint=eastwest;whiteSpace=wrap;html=1;" vertex="1" parent="7bcEWOuLD8hm9Ksaf6sa-85">
          <mxGeometry y="26" width="140" height="26" as="geometry" />
        </mxCell>
        <mxCell id="7bcEWOuLD8hm9Ksaf6sa-89" value="int32 - range" style="text;strokeColor=none;fillColor=none;align=left;verticalAlign=top;spacingLeft=4;spacingRight=4;overflow=hidden;rotatable=0;points=[[0,0.5],[1,0.5]];portConstraint=eastwest;whiteSpace=wrap;html=1;" vertex="1" parent="7bcEWOuLD8hm9Ksaf6sa-85">
          <mxGeometry y="52" width="140" height="26" as="geometry" />
        </mxCell>
        <mxCell id="7bcEWOuLD8hm9Ksaf6sa-90" value="Vector3 - position" style="text;strokeColor=none;fillColor=none;align=left;verticalAlign=top;spacingLeft=4;spacingRight=4;overflow=hidden;rotatable=0;points=[[0,0.5],[1,0.5]];portConstraint=eastwest;whiteSpace=wrap;html=1;" vertex="1" parent="7bcEWOuLD8hm9Ksaf6sa-85">
          <mxGeometry y="78" width="140" height="26" as="geometry" />
        </mxCell>
        <mxCell id="7bcEWOuLD8hm9Ksaf6sa-91" value="" style="line;strokeWidth=1;fillColor=none;align=left;verticalAlign=middle;spacingTop=-1;spacingLeft=3;spacingRight=3;rotatable=0;labelPosition=right;points=[];portConstraint=eastwest;strokeColor=inherit;" vertex="1" parent="7bcEWOuLD8hm9Ksaf6sa-85">
          <mxGeometry y="104" width="140" height="8" as="geometry" />
        </mxCell>
        <mxCell id="7bcEWOuLD8hm9Ksaf6sa-92" value="bool - success" style="text;strokeColor=none;fillColor=none;align=left;verticalAlign=top;spacingLeft=4;spacingRight=4;overflow=hidden;rotatable=0;points=[[0,0.5],[1,0.5]];portConstraint=eastwest;whiteSpace=wrap;html=1;" vertex="1" parent="7bcEWOuLD8hm9Ksaf6sa-85">
          <mxGeometry y="112" width="140" height="26" as="geometry" />
        </mxCell>
        <mxCell id="7bcEWOuLD8hm9Ksaf6sa-93" value="ChangeColor" style="swimlane;fontStyle=1;align=center;verticalAlign=top;childLayout=stackLayout;horizontal=1;startSize=26;horizontalStack=0;resizeParent=1;resizeParentMax=0;resizeLast=0;collapsible=1;marginBottom=0;whiteSpace=wrap;html=1;" vertex="1" parent="WIyWlLk6GJQsqaUBKTNV-1">
          <mxGeometry x="480" y="1968" width="140" height="112" as="geometry">
            <mxRectangle x="60" y="1610" width="200" height="30" as="alternateBounds" />
          </mxGeometry>
        </mxCell>
        <mxCell id="7bcEWOuLD8hm9Ksaf6sa-94" value="uint32 - id" style="text;strokeColor=none;fillColor=none;align=left;verticalAlign=top;spacingLeft=4;spacingRight=4;overflow=hidden;rotatable=0;points=[[0,0.5],[1,0.5]];portConstraint=eastwest;whiteSpace=wrap;html=1;" vertex="1" parent="7bcEWOuLD8hm9Ksaf6sa-93">
          <mxGeometry y="26" width="140" height="26" as="geometry" />
        </mxCell>
        <mxCell id="7bcEWOuLD8hm9Ksaf6sa-96" value="Vector3 - color" style="text;strokeColor=none;fillColor=none;align=left;verticalAlign=top;spacingLeft=4;spacingRight=4;overflow=hidden;rotatable=0;points=[[0,0.5],[1,0.5]];portConstraint=eastwest;whiteSpace=wrap;html=1;" vertex="1" parent="7bcEWOuLD8hm9Ksaf6sa-93">
          <mxGeometry y="52" width="140" height="26" as="geometry" />
        </mxCell>
        <mxCell id="7bcEWOuLD8hm9Ksaf6sa-97" value="" style="line;strokeWidth=1;fillColor=none;align=left;verticalAlign=middle;spacingTop=-1;spacingLeft=3;spacingRight=3;rotatable=0;labelPosition=right;points=[];portConstraint=eastwest;strokeColor=inherit;" vertex="1" parent="7bcEWOuLD8hm9Ksaf6sa-93">
          <mxGeometry y="78" width="140" height="8" as="geometry" />
        </mxCell>
        <mxCell id="7bcEWOuLD8hm9Ksaf6sa-98" value="bool - success" style="text;strokeColor=none;fillColor=none;align=left;verticalAlign=top;spacingLeft=4;spacingRight=4;overflow=hidden;rotatable=0;points=[[0,0.5],[1,0.5]];portConstraint=eastwest;whiteSpace=wrap;html=1;" vertex="1" parent="7bcEWOuLD8hm9Ksaf6sa-93">
          <mxGeometry y="86" width="140" height="26" as="geometry" />
        </mxCell>
        <mxCell id="7bcEWOuLD8hm9Ksaf6sa-99" value="Landed" style="swimlane;fontStyle=1;align=center;verticalAlign=top;childLayout=stackLayout;horizontal=1;startSize=26;horizontalStack=0;resizeParent=1;resizeParentMax=0;resizeLast=0;collapsible=1;marginBottom=0;whiteSpace=wrap;html=1;" vertex="1" parent="WIyWlLk6GJQsqaUBKTNV-1">
          <mxGeometry x="273" y="1968" width="127" height="86" as="geometry">
            <mxRectangle x="60" y="1610" width="200" height="30" as="alternateBounds" />
          </mxGeometry>
        </mxCell>
        <mxCell id="7bcEWOuLD8hm9Ksaf6sa-100" value="int32 - id" style="text;strokeColor=none;fillColor=none;align=left;verticalAlign=top;spacingLeft=4;spacingRight=4;overflow=hidden;rotatable=0;points=[[0,0.5],[1,0.5]];portConstraint=eastwest;whiteSpace=wrap;html=1;" vertex="1" parent="7bcEWOuLD8hm9Ksaf6sa-99">
          <mxGeometry y="26" width="127" height="26" as="geometry" />
        </mxCell>
        <mxCell id="7bcEWOuLD8hm9Ksaf6sa-103" value="" style="line;strokeWidth=1;fillColor=none;align=left;verticalAlign=middle;spacingTop=-1;spacingLeft=3;spacingRight=3;rotatable=0;labelPosition=right;points=[];portConstraint=eastwest;strokeColor=inherit;" vertex="1" parent="7bcEWOuLD8hm9Ksaf6sa-99">
          <mxGeometry y="52" width="127" height="8" as="geometry" />
        </mxCell>
        <mxCell id="7bcEWOuLD8hm9Ksaf6sa-104" value="bool - success" style="text;strokeColor=none;fillColor=none;align=left;verticalAlign=top;spacingLeft=4;spacingRight=4;overflow=hidden;rotatable=0;points=[[0,0.5],[1,0.5]];portConstraint=eastwest;whiteSpace=wrap;html=1;" vertex="1" parent="7bcEWOuLD8hm9Ksaf6sa-99">
          <mxGeometry y="60" width="127" height="26" as="geometry" />
        </mxCell>
        <mxCell id="7bcEWOuLD8hm9Ksaf6sa-105" value="LaunchDrone" style="swimlane;fontStyle=1;align=center;verticalAlign=top;childLayout=stackLayout;horizontal=1;startSize=26;horizontalStack=0;resizeParent=1;resizeParentMax=0;resizeLast=0;collapsible=1;marginBottom=0;whiteSpace=wrap;html=1;" vertex="1" parent="WIyWlLk6GJQsqaUBKTNV-1">
          <mxGeometry x="60" y="1968" width="130" height="86" as="geometry">
            <mxRectangle x="60" y="1610" width="200" height="30" as="alternateBounds" />
          </mxGeometry>
        </mxCell>
        <mxCell id="7bcEWOuLD8hm9Ksaf6sa-106" value="uint32 - id" style="text;strokeColor=none;fillColor=none;align=left;verticalAlign=top;spacingLeft=4;spacingRight=4;overflow=hidden;rotatable=0;points=[[0,0.5],[1,0.5]];portConstraint=eastwest;whiteSpace=wrap;html=1;" vertex="1" parent="7bcEWOuLD8hm9Ksaf6sa-105">
          <mxGeometry y="26" width="130" height="26" as="geometry" />
        </mxCell>
        <mxCell id="7bcEWOuLD8hm9Ksaf6sa-109" value="" style="line;strokeWidth=1;fillColor=none;align=left;verticalAlign=middle;spacingTop=-1;spacingLeft=3;spacingRight=3;rotatable=0;labelPosition=right;points=[];portConstraint=eastwest;strokeColor=inherit;" vertex="1" parent="7bcEWOuLD8hm9Ksaf6sa-105">
          <mxGeometry y="52" width="130" height="8" as="geometry" />
        </mxCell>
        <mxCell id="7bcEWOuLD8hm9Ksaf6sa-110" value="bool - success" style="text;strokeColor=none;fillColor=none;align=left;verticalAlign=top;spacingLeft=4;spacingRight=4;overflow=hidden;rotatable=0;points=[[0,0.5],[1,0.5]];portConstraint=eastwest;whiteSpace=wrap;html=1;" vertex="1" parent="7bcEWOuLD8hm9Ksaf6sa-105">
          <mxGeometry y="60" width="130" height="26" as="geometry" />
        </mxCell>
      </root>
    </mxGraphModel>
  </diagram>
  <diagram id="BQX-F6oB1hg1IkZUYBr3" name="API">
    <mxGraphModel dx="4151" dy="1603" grid="1" gridSize="10" guides="1" tooltips="1" connect="1" arrows="1" fold="1" page="1" pageScale="1" pageWidth="827" pageHeight="1169" math="0" shadow="0">
      <root>
        <mxCell id="0" />
        <mxCell id="1" parent="0" />
      </root>
    </mxGraphModel>
  </diagram>
</mxfile>
